<mxfile host="65bd71144e">
    <diagram id="xLcGjLG1Y2inO_7Ebg9N" name="Página-1">
        <mxGraphModel dx="234" dy="1319" grid="1" gridSize="10" guides="1" tooltips="1" connect="1" arrows="1" fold="1" page="1" pageScale="1" pageWidth="827" pageHeight="1169" math="0" shadow="0">
            <root>
                <mxCell id="0"/>
                <mxCell id="1" parent="0"/>
                <mxCell id="3" value="Usuarios" style="swimlane;fontStyle=0;align=center;verticalAlign=top;childLayout=stackLayout;horizontal=1;startSize=26;horizontalStack=0;resizeParent=1;resizeLast=0;collapsible=1;marginBottom=0;rounded=0;shadow=0;strokeWidth=1;fontSize=12;fillColor=#6a00ff;fontColor=#FFFFFF;strokeColor=#3700CC;" parent="1" vertex="1">
                    <mxGeometry x="450" y="40" width="160" height="370" as="geometry">
                        <mxRectangle x="550" y="140" width="160" height="26" as="alternateBounds"/>
                    </mxGeometry>
                </mxCell>
                <mxCell id="4" value=" - idUsuario: int (PK)&#10; -nombre: string&#10; - apellido: string&#10; - cedula: string&#10; - direccion: string&#10; - telefono: string&#10; - correo: string&#10; - datoBancario: string&#10; - nickname: string&#10;- imagenPerfil: string" style="text;align=left;verticalAlign=top;spacingLeft=4;spacingRight=4;overflow=hidden;rotatable=0;points=[[0,0.5],[1,0.5]];portConstraint=eastwest;fontSize=12;fontColor=#FFFFFF;" parent="3" vertex="1">
                    <mxGeometry y="26" width="160" height="164" as="geometry"/>
                </mxCell>
                <mxCell id="5" value="" style="line;html=1;strokeWidth=1;align=left;verticalAlign=middle;spacingTop=-1;spacingLeft=3;spacingRight=3;rotatable=0;labelPosition=right;points=[];portConstraint=eastwest;fontSize=12;fontColor=#FFFFFF;" parent="3" vertex="1">
                    <mxGeometry y="190" width="160" height="8" as="geometry"/>
                </mxCell>
                <mxCell id="6" value="+ constructor()&#10;+ crearUsuario()&#10;+ obtenerUsuarioPorId()&#10;+ actualizarUsuario()&#10;+ eliminarUsuario()&#10;+ autenticarUsuario()&#10;+ actualizarDatoBancario()&#10;+ validarCorreo()&#10;+ validarCedula()" style="text;align=left;verticalAlign=top;spacingLeft=4;spacingRight=4;overflow=hidden;rotatable=0;points=[[0,0.5],[1,0.5]];portConstraint=eastwest;fontSize=12;fontColor=#FFFFFF;" parent="3" vertex="1">
                    <mxGeometry y="198" width="160" height="172" as="geometry"/>
                </mxCell>
                <mxCell id="7" value="Facturas" style="swimlane;fontStyle=0;align=center;verticalAlign=top;childLayout=stackLayout;horizontal=1;startSize=26;horizontalStack=0;resizeParent=1;resizeLast=0;collapsible=1;marginBottom=0;rounded=0;shadow=0;strokeWidth=1;fontSize=12;fillColor=#6a00ff;fontColor=#FFFFFF;strokeColor=#3700CC;" parent="1" vertex="1">
                    <mxGeometry x="1155" y="-410" width="170" height="248" as="geometry">
                        <mxRectangle x="550" y="140" width="160" height="26" as="alternateBounds"/>
                    </mxGeometry>
                </mxCell>
                <mxCell id="8" value="- IdFactura: int (PK)&#10;- IdUsuario: int (FK)&#10;-idMetodoPago int (FK)&#10;-idPedido int (FK)&#10;- Fecha: date&#10;- Hora: time&#10;- Total: float&#10;- EstadoPago: string" style="text;align=left;verticalAlign=top;spacingLeft=4;spacingRight=4;overflow=hidden;rotatable=0;points=[[0,0.5],[1,0.5]];portConstraint=eastwest;fontSize=12;fontColor=#FFFFFF;" parent="7" vertex="1">
                    <mxGeometry y="26" width="170" height="134" as="geometry"/>
                </mxCell>
                <mxCell id="9" value="" style="line;html=1;strokeWidth=1;align=left;verticalAlign=middle;spacingTop=-1;spacingLeft=3;spacingRight=3;rotatable=0;labelPosition=right;points=[];portConstraint=eastwest;fontSize=12;fontColor=#FFFFFF;" parent="7" vertex="1">
                    <mxGeometry y="160" width="170" height="8" as="geometry"/>
                </mxCell>
                <mxCell id="10" value="+ constructor()&#10;+ agregarDetalleFactura()&#10;+ eliminarDetalleFactura()&#10;+ calcularTotalFactura()&#10;+actualizarestadopago()" style="text;align=left;verticalAlign=top;spacingLeft=4;spacingRight=4;overflow=hidden;rotatable=0;points=[[0,0.5],[1,0.5]];portConstraint=eastwest;fontSize=12;fontColor=#FFFFFF;" parent="7" vertex="1">
                    <mxGeometry y="168" width="170" height="80" as="geometry"/>
                </mxCell>
                <mxCell id="11" value="Pedidos" style="swimlane;fontStyle=0;align=center;verticalAlign=top;childLayout=stackLayout;horizontal=1;startSize=26;horizontalStack=0;resizeParent=1;resizeLast=0;collapsible=1;marginBottom=0;rounded=0;shadow=0;strokeWidth=1;fontSize=12;fillColor=#6a00ff;fontColor=#FFFFFF;strokeColor=#3700CC;" parent="1" vertex="1">
                    <mxGeometry x="1170" y="-5" width="160" height="200" as="geometry">
                        <mxRectangle x="550" y="140" width="160" height="26" as="alternateBounds"/>
                    </mxGeometry>
                </mxCell>
                <mxCell id="12" value="- idPedido: int (PK)&#10;- idUsuario: int (FK)&#10;-idCarrito int (FK)&#10;- Hora: time&#10;- FechaPedido: date&#10;- Estado: string" style="text;align=left;verticalAlign=top;spacingLeft=4;spacingRight=4;overflow=hidden;rotatable=0;points=[[0,0.5],[1,0.5]];portConstraint=eastwest;fontSize=12;fontColor=#FFFFFF;" parent="11" vertex="1">
                    <mxGeometry y="26" width="160" height="84" as="geometry"/>
                </mxCell>
                <mxCell id="13" value="" style="line;html=1;strokeWidth=1;align=left;verticalAlign=middle;spacingTop=-1;spacingLeft=3;spacingRight=3;rotatable=0;labelPosition=right;points=[];portConstraint=eastwest;fontSize=12;fontColor=#FFFFFF;" parent="11" vertex="1">
                    <mxGeometry y="110" width="160" height="8" as="geometry"/>
                </mxCell>
                <mxCell id="14" value=" +constructor()&#10; + agregarProducto()&#10; + obtenerProductos()&#10; + calcularTotal()&#10; + actualizarEstado()" style="text;align=left;verticalAlign=top;spacingLeft=4;spacingRight=4;overflow=hidden;rotatable=0;points=[[0,0.5],[1,0.5]];portConstraint=eastwest;fontSize=12;fontColor=#FFFFFF;" parent="11" vertex="1">
                    <mxGeometry y="118" width="160" height="82" as="geometry"/>
                </mxCell>
                <mxCell id="15" style="edgeStyle=orthogonalEdgeStyle;rounded=1;html=1;endArrow=none;endFill=0;entryX=1;entryY=0.5;entryDx=0;entryDy=0;fillColor=#008a00;strokeColor=#CED3D7;fontColor=#FFFFFF;startArrow=none;exitX=0.5;exitY=0;exitDx=0;exitDy=0;" parent="1" source="18" target="152" edge="1">
                    <mxGeometry relative="1" as="geometry">
                        <mxPoint x="1660" y="-630" as="targetPoint"/>
                        <Array as="points">
                            <mxPoint x="1510" y="560"/>
                            <mxPoint x="1750" y="560"/>
                            <mxPoint x="1750" y="-622"/>
                        </Array>
                        <mxPoint x="1740" y="560" as="sourcePoint"/>
                    </mxGeometry>
                </mxCell>
                <mxCell id="16" value="N" style="edgeLabel;html=1;align=center;verticalAlign=middle;resizable=0;points=[];fontColor=#FFFFFF;" parent="15" vertex="1" connectable="0">
                    <mxGeometry x="0.9757" y="3" relative="1" as="geometry">
                        <mxPoint y="-21" as="offset"/>
                    </mxGeometry>
                </mxCell>
                <mxCell id="232" value="1" style="edgeLabel;html=1;align=center;verticalAlign=middle;resizable=0;points=[];" parent="15" vertex="1" connectable="0">
                    <mxGeometry x="-0.9519" y="-1" relative="1" as="geometry">
                        <mxPoint y="9" as="offset"/>
                    </mxGeometry>
                </mxCell>
                <mxCell id="233" value="1" style="edgeLabel;html=1;align=center;verticalAlign=middle;resizable=0;points=[];" parent="15" vertex="1" connectable="0">
                    <mxGeometry x="0.9711" y="1" relative="1" as="geometry">
                        <mxPoint x="-1" y="11" as="offset"/>
                    </mxGeometry>
                </mxCell>
                <mxCell id="18" value="Productos" style="swimlane;fontStyle=0;align=center;verticalAlign=top;childLayout=stackLayout;horizontal=1;startSize=26;horizontalStack=0;resizeParent=1;resizeLast=0;collapsible=1;marginBottom=0;rounded=0;shadow=0;strokeWidth=1;fontSize=12;fillColor=#6a00ff;fontColor=#FFFFFF;strokeColor=#3700CC;" parent="1" vertex="1">
                    <mxGeometry x="1430" y="590" width="160" height="250" as="geometry">
                        <mxRectangle x="550" y="140" width="160" height="26" as="alternateBounds"/>
                    </mxGeometry>
                </mxCell>
                <mxCell id="19" value=" - idProducto: int (PK)&#10; - idPedido: int (FK)&#10; - nombre: string&#10; - precio: float&#10; - categoria: string&#10; - descripcion: string&#10; " style="text;align=left;verticalAlign=top;spacingLeft=4;spacingRight=4;overflow=hidden;rotatable=0;points=[[0,0.5],[1,0.5]];portConstraint=eastwest;fontSize=12;fontColor=#FFFFFF;" parent="18" vertex="1">
                    <mxGeometry y="26" width="160" height="114" as="geometry"/>
                </mxCell>
                <mxCell id="20" value="" style="line;html=1;strokeWidth=1;align=left;verticalAlign=middle;spacingTop=-1;spacingLeft=3;spacingRight=3;rotatable=0;labelPosition=right;points=[];portConstraint=eastwest;fontSize=12;fontColor=#FFFFFF;" parent="18" vertex="1">
                    <mxGeometry y="140" width="160" height="8" as="geometry"/>
                </mxCell>
                <mxCell id="21" value="+constructor()&#10;+mostrarDetalle() &#10;+agregarCategoria()&#10;+ actualizarPrecio()&#10;+ actualizarDescripcion()&#10;+ actualizarImagen() " style="text;align=left;verticalAlign=top;spacingLeft=4;spacingRight=4;overflow=hidden;rotatable=0;points=[[0,0.5],[1,0.5]];portConstraint=eastwest;fontSize=12;fontColor=#FFFFFF;" parent="18" vertex="1">
                    <mxGeometry y="148" width="160" height="102" as="geometry"/>
                </mxCell>
                <mxCell id="22" value="Notificaciones" style="swimlane;fontStyle=0;align=center;verticalAlign=top;childLayout=stackLayout;horizontal=1;startSize=26;horizontalStack=0;resizeParent=1;resizeLast=0;collapsible=1;marginBottom=0;rounded=0;shadow=0;strokeWidth=1;fontSize=12;fillColor=#6a00ff;fontColor=#FFFFFF;strokeColor=#3700CC;" parent="1" vertex="1">
                    <mxGeometry x="1450" y="320" width="160" height="175" as="geometry">
                        <mxRectangle x="550" y="140" width="160" height="26" as="alternateBounds"/>
                    </mxGeometry>
                </mxCell>
                <mxCell id="23" value="- idNotificacion: int (PK)&#10;- idPedido: int (FK)&#10;- fecha: date&#10;- hora: time&#10;- notificacionPedido: text" style="text;align=left;verticalAlign=top;spacingLeft=4;spacingRight=4;overflow=hidden;rotatable=0;points=[[0,0.5],[1,0.5]];portConstraint=eastwest;fontSize=12;fontColor=#FFFFFF;" parent="22" vertex="1">
                    <mxGeometry y="26" width="160" height="84" as="geometry"/>
                </mxCell>
                <mxCell id="24" value="" style="line;html=1;strokeWidth=1;align=left;verticalAlign=middle;spacingTop=-1;spacingLeft=3;spacingRight=3;rotatable=0;labelPosition=right;points=[];portConstraint=eastwest;fontSize=12;fontColor=#FFFFFF;" parent="22" vertex="1">
                    <mxGeometry y="110" width="160" height="8" as="geometry"/>
                </mxCell>
                <mxCell id="25" value="+constructor()&#10;+ enviarNotificacion() &#10;+enviarCorreo()" style="text;align=left;verticalAlign=top;spacingLeft=4;spacingRight=4;overflow=hidden;rotatable=0;points=[[0,0.5],[1,0.5]];portConstraint=eastwest;fontSize=12;fontColor=#FFFFFF;" parent="22" vertex="1">
                    <mxGeometry y="118" width="160" height="52" as="geometry"/>
                </mxCell>
                <mxCell id="27" value="DetallesFacturas" style="swimlane;fontStyle=0;align=center;verticalAlign=top;childLayout=stackLayout;horizontal=1;startSize=26;horizontalStack=0;resizeParent=1;resizeLast=0;collapsible=1;marginBottom=0;rounded=0;shadow=0;strokeWidth=1;fontSize=12;fillColor=#6a00ff;fontColor=#FFFFFF;strokeColor=#3700CC;" parent="1" vertex="1">
                    <mxGeometry x="900" y="-10" width="180" height="200" as="geometry">
                        <mxRectangle x="550" y="140" width="160" height="26" as="alternateBounds"/>
                    </mxGeometry>
                </mxCell>
                <mxCell id="28" value="- IdDetalleFactura: int (PK)&#10;- IdFactura: int (FK)&#10;- IdProducto: int (FK)&#10;- Cantidad: int&#10;- PrecioUnitario: float&#10;- Subtotal: float  " style="text;align=left;verticalAlign=top;spacingLeft=4;spacingRight=4;overflow=hidden;rotatable=0;points=[[0,0.5],[1,0.5]];portConstraint=eastwest;fontSize=12;fontColor=#FFFFFF;" parent="27" vertex="1">
                    <mxGeometry y="26" width="180" height="94" as="geometry"/>
                </mxCell>
                <mxCell id="29" value="" style="line;html=1;strokeWidth=1;align=left;verticalAlign=middle;spacingTop=-1;spacingLeft=3;spacingRight=3;rotatable=0;labelPosition=right;points=[];portConstraint=eastwest;fontSize=12;fontColor=#FFFFFF;" parent="27" vertex="1">
                    <mxGeometry y="120" width="180" height="8" as="geometry"/>
                </mxCell>
                <mxCell id="30" value="+ Constructor() &#10;+ calcularSubtotal() &#10;+ actualizarCantidad() &#10;+ actualizarPrecioUnitario()" style="text;align=left;verticalAlign=top;spacingLeft=4;spacingRight=4;overflow=hidden;rotatable=0;points=[[0,0.5],[1,0.5]];portConstraint=eastwest;fontSize=12;fontColor=#FFFFFF;" parent="27" vertex="1">
                    <mxGeometry y="128" width="180" height="72" as="geometry"/>
                </mxCell>
                <mxCell id="34" style="edgeStyle=orthogonalEdgeStyle;rounded=1;html=1;exitX=0.25;exitY=0;exitDx=0;exitDy=0;endArrow=none;endFill=0;entryX=0;entryY=0.5;entryDx=0;entryDy=0;fillColor=#f5f5f5;strokeColor=#CED3D7;fontColor=#FFFFFF;" parent="1" source="37" target="8" edge="1">
                    <mxGeometry relative="1" as="geometry">
                        <mxPoint x="1120" y="-330" as="targetPoint"/>
                        <Array as="points">
                            <mxPoint x="108" y="-670"/>
                            <mxPoint x="1120" y="-670"/>
                            <mxPoint x="1120" y="-327"/>
                        </Array>
                    </mxGeometry>
                </mxCell>
                <mxCell id="35" value="1" style="edgeLabel;html=1;align=center;verticalAlign=middle;resizable=0;points=[];fontColor=#FFFFFF;" parent="34" vertex="1" connectable="0">
                    <mxGeometry x="0.9217" relative="1" as="geometry">
                        <mxPoint x="-20" as="offset"/>
                    </mxGeometry>
                </mxCell>
                <mxCell id="36" value="1" style="edgeLabel;html=1;align=center;verticalAlign=middle;resizable=0;points=[];fontColor=#FFFFFF;" parent="34" vertex="1" connectable="0">
                    <mxGeometry x="-0.9783" relative="1" as="geometry">
                        <mxPoint x="23" as="offset"/>
                    </mxGeometry>
                </mxCell>
                <mxCell id="249" value="1" style="edgeLabel;html=1;align=center;verticalAlign=middle;resizable=0;points=[];" parent="34" vertex="1" connectable="0">
                    <mxGeometry x="0.9179" y="-2" relative="1" as="geometry">
                        <mxPoint x="22" as="offset"/>
                    </mxGeometry>
                </mxCell>
                <mxCell id="250" value="N" style="edgeLabel;html=1;align=center;verticalAlign=middle;resizable=0;points=[];" parent="34" vertex="1" connectable="0">
                    <mxGeometry x="-0.9588" relative="1" as="geometry">
                        <mxPoint x="-27" y="24" as="offset"/>
                    </mxGeometry>
                </mxCell>
                <mxCell id="37" value="MetodoPagos" style="swimlane;fontStyle=0;align=center;verticalAlign=top;childLayout=stackLayout;horizontal=1;startSize=26;horizontalStack=0;resizeParent=1;resizeLast=0;collapsible=1;marginBottom=0;rounded=0;shadow=0;strokeWidth=1;fontSize=12;fillColor=#6a00ff;fontColor=#FFFFFF;strokeColor=#3700CC;" parent="1" vertex="1">
                    <mxGeometry x="70" y="70" width="150" height="180" as="geometry">
                        <mxRectangle x="550" y="140" width="160" height="26" as="alternateBounds"/>
                    </mxGeometry>
                </mxCell>
                <mxCell id="38" value="-idMetodoPago: int (PK)&#10;-nombre: string&#10;-deascripcion: text" style="text;align=left;verticalAlign=top;spacingLeft=4;spacingRight=4;overflow=hidden;rotatable=0;points=[[0,0.5],[1,0.5]];portConstraint=eastwest;fontSize=12;fontColor=#FFFFFF;" parent="37" vertex="1">
                    <mxGeometry y="26" width="150" height="54" as="geometry"/>
                </mxCell>
                <mxCell id="39" value="" style="line;html=1;strokeWidth=1;align=left;verticalAlign=middle;spacingTop=-1;spacingLeft=3;spacingRight=3;rotatable=0;labelPosition=right;points=[];portConstraint=eastwest;fontSize=12;fontColor=#FFFFFF;" parent="37" vertex="1">
                    <mxGeometry y="80" width="150" height="8" as="geometry"/>
                </mxCell>
                <mxCell id="40" value="+constructor()&#10;+procesarPago&#10;+ValidarPago&#10;+obtenerDetallePago" style="text;align=left;verticalAlign=top;spacingLeft=4;spacingRight=4;overflow=hidden;rotatable=0;points=[[0,0.5],[1,0.5]];portConstraint=eastwest;fontSize=12;fontColor=#FFFFFF;" parent="37" vertex="1">
                    <mxGeometry y="88" width="150" height="92" as="geometry"/>
                </mxCell>
                <mxCell id="41" value="FotoProductos" style="swimlane;fontStyle=0;align=center;verticalAlign=top;childLayout=stackLayout;horizontal=1;startSize=26;horizontalStack=0;resizeParent=1;resizeLast=0;collapsible=1;marginBottom=0;rounded=0;shadow=0;strokeWidth=1;fontSize=12;fillColor=#6a00ff;fontColor=#FFFFFF;strokeColor=#3700CC;" parent="1" vertex="1">
                    <mxGeometry x="1180" y="620" width="160" height="220" as="geometry">
                        <mxRectangle x="550" y="140" width="160" height="26" as="alternateBounds"/>
                    </mxGeometry>
                </mxCell>
                <mxCell id="42" value="- idFotoProducto: int (PK)&#10;-  idProducto int (FK)&#10;- urlFoto: string&#10;- descripcion: text" style="text;align=left;verticalAlign=top;spacingLeft=4;spacingRight=4;overflow=hidden;rotatable=0;points=[[0,0.5],[1,0.5]];portConstraint=eastwest;fontSize=12;fontColor=#FFFFFF;" parent="41" vertex="1">
                    <mxGeometry y="26" width="160" height="74" as="geometry"/>
                </mxCell>
                <mxCell id="43" value="" style="line;html=1;strokeWidth=1;align=left;verticalAlign=middle;spacingTop=-1;spacingLeft=3;spacingRight=3;rotatable=0;labelPosition=right;points=[];portConstraint=eastwest;fontSize=12;fontColor=#FFFFFF;" parent="41" vertex="1">
                    <mxGeometry y="100" width="160" height="8" as="geometry"/>
                </mxCell>
                <mxCell id="44" value="+constructor()&#10;+cargarFoto()&#10;+actualizarDescripcion()&#10;+crearFotoProducto()&#10;+obtenerFotoProducto()&#10;+actualizarFotoProducto()&#10;+eliminarFotoProducto()&#10;&#10;" style="text;align=left;verticalAlign=top;spacingLeft=4;spacingRight=4;overflow=hidden;rotatable=0;points=[[0,0.5],[1,0.5]];portConstraint=eastwest;fontSize=12;fontColor=#FFFFFF;" parent="41" vertex="1">
                    <mxGeometry y="108" width="160" height="112" as="geometry"/>
                </mxCell>
                <mxCell id="45" value="Categorias" style="swimlane;fontStyle=0;align=center;verticalAlign=top;childLayout=stackLayout;horizontal=1;startSize=26;horizontalStack=0;resizeParent=1;resizeLast=0;collapsible=1;marginBottom=0;rounded=0;shadow=0;strokeWidth=1;fontSize=12;fillColor=#6a00ff;fontColor=#FFFFFF;strokeColor=#3700CC;" parent="1" vertex="1">
                    <mxGeometry x="1970" y="580" width="190" height="230" as="geometry">
                        <mxRectangle x="550" y="140" width="160" height="26" as="alternateBounds"/>
                    </mxGeometry>
                </mxCell>
                <mxCell id="46" value="-idCategoria int (PK)&#10;-nombre&#10;-descripcion&#10;" style="text;align=left;verticalAlign=top;spacingLeft=4;spacingRight=4;overflow=hidden;rotatable=0;points=[[0,0.5],[1,0.5]];portConstraint=eastwest;fontSize=12;fontColor=#FFFFFF;" parent="45" vertex="1">
                    <mxGeometry y="26" width="190" height="84" as="geometry"/>
                </mxCell>
                <mxCell id="47" value="" style="line;html=1;strokeWidth=1;align=left;verticalAlign=middle;spacingTop=-1;spacingLeft=3;spacingRight=3;rotatable=0;labelPosition=right;points=[];portConstraint=eastwest;fontSize=12;fontColor=#FFFFFF;" parent="45" vertex="1">
                    <mxGeometry y="110" width="190" height="8" as="geometry"/>
                </mxCell>
                <mxCell id="48" value="+ Constructor()&#10;+ crearCategoria()&#10;+ obtenerCategoriaPorId()&#10;+ actualizarCategoria()&#10;+ eliminarCategoria()" style="text;align=left;verticalAlign=top;spacingLeft=4;spacingRight=4;overflow=hidden;rotatable=0;points=[[0,0.5],[1,0.5]];portConstraint=eastwest;fontSize=12;fontColor=#FFFFFF;" parent="45" vertex="1">
                    <mxGeometry y="118" width="190" height="82" as="geometry"/>
                </mxCell>
                <mxCell id="49" value="Carritos" style="swimlane;fontStyle=0;align=center;verticalAlign=top;childLayout=stackLayout;horizontal=1;startSize=26;horizontalStack=0;resizeParent=1;resizeLast=0;collapsible=1;marginBottom=0;rounded=0;shadow=0;strokeWidth=1;fontSize=12;fillColor=#6a00ff;fontColor=#FFFFFF;strokeColor=#3700CC;" parent="1" vertex="1">
                    <mxGeometry x="399" y="560" width="190" height="250" as="geometry">
                        <mxRectangle x="550" y="140" width="160" height="26" as="alternateBounds"/>
                    </mxGeometry>
                </mxCell>
                <mxCell id="50" value="-idCarrito: int (PK)&#10;-idUsuario int (FK)&#10;- Fecha: date&#10;- Hora: time&#10;- Estado: string" style="text;align=left;verticalAlign=top;spacingLeft=4;spacingRight=4;overflow=hidden;rotatable=0;points=[[0,0.5],[1,0.5]];portConstraint=eastwest;fontSize=12;fontColor=#FFFFFF;" parent="49" vertex="1">
                    <mxGeometry y="26" width="190" height="114" as="geometry"/>
                </mxCell>
                <mxCell id="51" value="" style="line;html=1;strokeWidth=1;align=left;verticalAlign=middle;spacingTop=-1;spacingLeft=3;spacingRight=3;rotatable=0;labelPosition=right;points=[];portConstraint=eastwest;fontSize=12;fontColor=#FFFFFF;" parent="49" vertex="1">
                    <mxGeometry y="140" width="190" height="8" as="geometry"/>
                </mxCell>
                <mxCell id="52" value="+constructor ()&#10;+ agregarDetalleCarrito()&#10;+ eliminarDetalleCarrito()&#10;+ calcularTotalCarrito()" style="text;align=left;verticalAlign=top;spacingLeft=4;spacingRight=4;overflow=hidden;rotatable=0;points=[[0,0.5],[1,0.5]];portConstraint=eastwest;fontSize=12;fontColor=#FFFFFF;" parent="49" vertex="1">
                    <mxGeometry y="148" width="190" height="102" as="geometry"/>
                </mxCell>
                <mxCell id="53" value="DetalleCarritos" style="swimlane;fontStyle=0;align=center;verticalAlign=top;childLayout=stackLayout;horizontal=1;startSize=26;horizontalStack=0;resizeParent=1;resizeLast=0;collapsible=1;marginBottom=0;rounded=0;shadow=0;strokeWidth=1;fontSize=12;fillColor=#6a00ff;fontColor=#FFFFFF;strokeColor=#3700CC;" parent="1" vertex="1">
                    <mxGeometry x="390" y="910" width="190" height="250" as="geometry">
                        <mxRectangle x="550" y="140" width="160" height="26" as="alternateBounds"/>
                    </mxGeometry>
                </mxCell>
                <mxCell id="54" value=" - idDetalleCarrito: INT (PK)&#10; -idCarrito: INT (FK)&#10; -idProducto: INT (FK)&#10; -cantidad: INT&#10;- PrecioUnitario: float&#10;- Subtotal: float" style="text;align=left;verticalAlign=top;spacingLeft=4;spacingRight=4;overflow=hidden;rotatable=0;points=[[0,0.5],[1,0.5]];portConstraint=eastwest;fontSize=12;fontColor=#FFFFFF;" parent="53" vertex="1">
                    <mxGeometry y="26" width="190" height="114" as="geometry"/>
                </mxCell>
                <mxCell id="55" value="" style="line;html=1;strokeWidth=1;align=left;verticalAlign=middle;spacingTop=-1;spacingLeft=3;spacingRight=3;rotatable=0;labelPosition=right;points=[];portConstraint=eastwest;fontSize=12;fontColor=#FFFFFF;" parent="53" vertex="1">
                    <mxGeometry y="140" width="190" height="8" as="geometry"/>
                </mxCell>
                <mxCell id="56" value="+constructor()&#10;+ calcularSubtotal()&#10;+ actualizarCantidad()&#10;+ actualizarPrecioUnitario()" style="text;align=left;verticalAlign=top;spacingLeft=4;spacingRight=4;overflow=hidden;rotatable=0;points=[[0,0.5],[1,0.5]];portConstraint=eastwest;fontSize=12;fontColor=#FFFFFF;" parent="53" vertex="1">
                    <mxGeometry y="148" width="190" height="102" as="geometry"/>
                </mxCell>
                <mxCell id="57" value="Chat" style="swimlane;fontStyle=0;align=center;verticalAlign=top;childLayout=stackLayout;horizontal=1;startSize=26;horizontalStack=0;resizeParent=1;resizeLast=0;collapsible=1;marginBottom=0;rounded=0;shadow=0;strokeWidth=1;fontSize=12;fillColor=#6a00ff;strokeColor=#3700CC;fontColor=#FFFFFF;" parent="1" vertex="1">
                    <mxGeometry x="40" y="350" width="190" height="210" as="geometry">
                        <mxRectangle x="550" y="140" width="160" height="26" as="alternateBounds"/>
                    </mxGeometry>
                </mxCell>
                <mxCell id="58" value=" - idChat: INT (PK)&#10; - idUsuario: INT (FK)&#10; - fecha: DATE ()&#10; - hora: TIME ()&#10; - mensaje:  TEXT ()&#10; - fotoProducto: string ()&#10;" style="text;align=left;verticalAlign=top;spacingLeft=4;spacingRight=4;overflow=hidden;rotatable=0;points=[[0,0.5],[1,0.5]];portConstraint=eastwest;fontSize=12;fontColor=#FFFFFF;" parent="57" vertex="1">
                    <mxGeometry y="26" width="190" height="104" as="geometry"/>
                </mxCell>
                <mxCell id="59" value="" style="line;html=1;strokeWidth=1;align=left;verticalAlign=middle;spacingTop=-1;spacingLeft=3;spacingRight=3;rotatable=0;labelPosition=right;points=[];portConstraint=eastwest;fontSize=12;fontColor=#FFFFFF;" parent="57" vertex="1">
                    <mxGeometry y="130" width="190" height="8" as="geometry"/>
                </mxCell>
                <mxCell id="60" value="+constructor()&#10;+enviarMensaje()&#10;+obtenerMensaje()" style="text;align=left;verticalAlign=top;spacingLeft=4;spacingRight=4;overflow=hidden;rotatable=0;points=[[0,0.5],[1,0.5]];portConstraint=eastwest;fontSize=12;fontColor=#FFFFFF;" parent="57" vertex="1">
                    <mxGeometry y="138" width="190" height="62" as="geometry"/>
                </mxCell>
                <mxCell id="62" value="Comprobantes" style="swimlane;fontStyle=0;align=center;verticalAlign=top;childLayout=stackLayout;horizontal=1;startSize=26;horizontalStack=0;resizeParent=1;resizeLast=0;collapsible=1;marginBottom=0;rounded=0;shadow=0;strokeWidth=1;fontSize=12;fillColor=#6a00ff;fontColor=#FFFFFF;strokeColor=#3700CC;" parent="1" vertex="1">
                    <mxGeometry x="890" y="320" width="190" height="250" as="geometry">
                        <mxRectangle x="550" y="140" width="160" height="26" as="alternateBounds"/>
                    </mxGeometry>
                </mxCell>
                <mxCell id="63" value="- IdComprobante: int (PK)&#10;- IdPedido: int (FK)&#10;- Fecha: date&#10;- Total: float&#10;- Detalles: text&#10;- EstadoPago: string" style="text;align=left;verticalAlign=top;spacingLeft=4;spacingRight=4;overflow=hidden;rotatable=0;points=[[0,0.5],[1,0.5]];portConstraint=eastwest;fontSize=12;fontColor=#FFFFFF;" parent="62" vertex="1">
                    <mxGeometry y="26" width="190" height="114" as="geometry"/>
                </mxCell>
                <mxCell id="64" value="" style="line;html=1;strokeWidth=1;align=left;verticalAlign=middle;spacingTop=-1;spacingLeft=3;spacingRight=3;rotatable=0;labelPosition=right;points=[];portConstraint=eastwest;fontSize=12;fontColor=#FFFFFF;" parent="62" vertex="1">
                    <mxGeometry y="140" width="190" height="8" as="geometry"/>
                </mxCell>
                <mxCell id="65" value="+constructor()&#10;+generarComprobante&#10;+generarPDF()&#10;+enviarCorreo()&#10;+actualizarEstadoPago()" style="text;align=left;verticalAlign=top;spacingLeft=4;spacingRight=4;overflow=hidden;rotatable=0;points=[[0,0.5],[1,0.5]];portConstraint=eastwest;fontSize=12;fontColor=#FFFFFF;" parent="62" vertex="1">
                    <mxGeometry y="148" width="190" height="102" as="geometry"/>
                </mxCell>
                <mxCell id="66" value="CuponDescuentos" style="swimlane;fontStyle=0;align=center;verticalAlign=top;childLayout=stackLayout;horizontal=1;startSize=26;horizontalStack=0;resizeParent=1;resizeLast=0;collapsible=1;marginBottom=0;rounded=0;shadow=0;strokeWidth=1;fontSize=12;fillColor=#6a00ff;fontColor=#FFFFFF;strokeColor=#3700CC;" parent="1" vertex="1">
                    <mxGeometry x="1180" y="320" width="190" height="260" as="geometry">
                        <mxRectangle x="550" y="140" width="160" height="26" as="alternateBounds"/>
                    </mxGeometry>
                </mxCell>
                <mxCell id="67" value="- IdCupon: int (PK)&#10;-idUsuarios int (FK)&#10;- codigo: string&#10;- descuento float&#10;- fechaInicio date&#10;- fechaFin date&#10;- estado string" style="text;align=left;verticalAlign=top;spacingLeft=4;spacingRight=4;overflow=hidden;rotatable=0;points=[[0,0.5],[1,0.5]];portConstraint=eastwest;fontSize=12;fontColor=#FFFFFF;" parent="66" vertex="1">
                    <mxGeometry y="26" width="190" height="114" as="geometry"/>
                </mxCell>
                <mxCell id="68" value="" style="line;html=1;strokeWidth=1;align=left;verticalAlign=middle;spacingTop=-1;spacingLeft=3;spacingRight=3;rotatable=0;labelPosition=right;points=[];portConstraint=eastwest;fontSize=12;fontColor=#FFFFFF;" parent="66" vertex="1">
                    <mxGeometry y="140" width="190" height="8" as="geometry"/>
                </mxCell>
                <mxCell id="69" value="+constructor()&#10;+aplicarDescuento&#10;+validarDescuento&#10;+obtenerDescuento &#10;+listarDescuento &#10;+filtrarDescuento&#10;+Crearcupon()" style="text;align=left;verticalAlign=top;spacingLeft=4;spacingRight=4;overflow=hidden;rotatable=0;points=[[0,0.5],[1,0.5]];portConstraint=eastwest;fontSize=12;fontColor=#FFFFFF;" parent="66" vertex="1">
                    <mxGeometry y="148" width="190" height="102" as="geometry"/>
                </mxCell>
                <mxCell id="70" value="UsuariosRoles" style="swimlane;fontStyle=0;align=center;verticalAlign=top;childLayout=stackLayout;horizontal=1;startSize=26;horizontalStack=0;resizeParent=1;resizeLast=0;collapsible=1;marginBottom=0;rounded=0;shadow=0;strokeWidth=1;fontSize=12;fillColor=#6a00ff;fontColor=#FFFFFF;strokeColor=#3700CC;" parent="1" vertex="1">
                    <mxGeometry x="410" y="-280" width="190" height="250" as="geometry">
                        <mxRectangle x="550" y="140" width="160" height="26" as="alternateBounds"/>
                    </mxGeometry>
                </mxCell>
                <mxCell id="71" value="-IdUsuario int (PK)&#10;- IdRol: int (FK)&#10;&#10;" style="text;align=left;verticalAlign=top;spacingLeft=4;spacingRight=4;overflow=hidden;rotatable=0;points=[[0,0.5],[1,0.5]];portConstraint=eastwest;fontSize=12;fontColor=#FFFFFF;" parent="70" vertex="1">
                    <mxGeometry y="26" width="190" height="114" as="geometry"/>
                </mxCell>
                <mxCell id="72" value="" style="line;html=1;strokeWidth=1;align=left;verticalAlign=middle;spacingTop=-1;spacingLeft=3;spacingRight=3;rotatable=0;labelPosition=right;points=[];portConstraint=eastwest;fontSize=12;fontColor=#FFFFFF;" parent="70" vertex="1">
                    <mxGeometry y="140" width="190" height="8" as="geometry"/>
                </mxCell>
                <mxCell id="73" value="+constructor()&#10;+eliminarRol()&#10;+obtenerRol()&#10;+asignarRol()&#10;+listarRol()&#10;+actualizarRol()" style="text;align=left;verticalAlign=top;spacingLeft=4;spacingRight=4;overflow=hidden;rotatable=0;points=[[0,0.5],[1,0.5]];portConstraint=eastwest;fontSize=12;fontColor=#FFFFFF;" parent="70" vertex="1">
                    <mxGeometry y="148" width="190" height="102" as="geometry"/>
                </mxCell>
                <mxCell id="74" value="DireccionEnvios" style="swimlane;fontStyle=0;align=center;verticalAlign=top;childLayout=stackLayout;horizontal=1;startSize=26;horizontalStack=0;resizeParent=1;resizeLast=0;collapsible=1;marginBottom=0;rounded=0;shadow=0;strokeWidth=1;fontSize=12;fillColor=#6a00ff;fontColor=#FFFFFF;strokeColor=#3700CC;" parent="1" vertex="1">
                    <mxGeometry x="1530" y="-256" width="190" height="296" as="geometry">
                        <mxRectangle x="550" y="140" width="160" height="26" as="alternateBounds"/>
                    </mxGeometry>
                </mxCell>
                <mxCell id="75" value="" style="line;html=1;strokeWidth=1;align=left;verticalAlign=middle;spacingTop=-1;spacingLeft=3;spacingRight=3;rotatable=0;labelPosition=right;points=[];portConstraint=eastwest;fontSize=12;fontColor=#FFFFFF;" parent="74" vertex="1">
                    <mxGeometry y="26" width="190" height="8" as="geometry"/>
                </mxCell>
                <mxCell id="76" value="- idDireccion int (PK)&#10;- idUsuario int (FK)&#10;-departamento: string&#10;-municipio: string&#10;-ciudad: string&#10;- direccion: string" style="text;align=left;verticalAlign=top;spacingLeft=4;spacingRight=4;overflow=hidden;rotatable=0;points=[[0,0.5],[1,0.5]];portConstraint=eastwest;fontSize=12;fontColor=#FFFFFF;" parent="74" vertex="1">
                    <mxGeometry y="34" width="190" height="160" as="geometry"/>
                </mxCell>
                <mxCell id="77" value="+constructor()&#10;+agregarDireccion &#10;+actualizarDirección&#10;+eliminarDireccion &#10;+listarDirecciones" style="text;align=left;verticalAlign=top;spacingLeft=4;spacingRight=4;overflow=hidden;rotatable=0;points=[[0,0.5],[1,0.5]];portConstraint=eastwest;fontSize=12;fontColor=#FFFFFF;" parent="74" vertex="1">
                    <mxGeometry y="194" width="190" height="102" as="geometry"/>
                </mxCell>
                <mxCell id="78" value="Suscripciones" style="swimlane;fontStyle=0;align=center;verticalAlign=top;childLayout=stackLayout;horizontal=1;startSize=26;horizontalStack=0;resizeParent=1;resizeLast=0;collapsible=1;marginBottom=0;rounded=0;shadow=0;strokeWidth=1;fontSize=12;fillColor=#6a00ff;fontColor=#FFFFFF;strokeColor=#3700CC;" parent="1" vertex="1">
                    <mxGeometry x="880" y="-400" width="190" height="296" as="geometry">
                        <mxRectangle x="550" y="140" width="160" height="26" as="alternateBounds"/>
                    </mxGeometry>
                </mxCell>
                <mxCell id="79" value="" style="line;html=1;strokeWidth=1;align=left;verticalAlign=middle;spacingTop=-1;spacingLeft=3;spacingRight=3;rotatable=0;labelPosition=right;points=[];portConstraint=eastwest;fontSize=12;fontColor=#FFFFFF;" parent="78" vertex="1">
                    <mxGeometry y="26" width="190" height="8" as="geometry"/>
                </mxCell>
                <mxCell id="80" value="- idSuscripcion int (PK)&#10;- idUsuario int (FK)&#10;- tipoSuscripcion: string&#10;- fechaInicio: date&#10;- fechaFin: date&#10;- estado: string" style="text;align=left;verticalAlign=top;spacingLeft=4;spacingRight=4;overflow=hidden;rotatable=0;points=[[0,0.5],[1,0.5]];portConstraint=eastwest;fontSize=12;fontColor=#FFFFFF;" parent="78" vertex="1">
                    <mxGeometry y="34" width="190" height="160" as="geometry"/>
                </mxCell>
                <mxCell id="81" value="+constructor()&#10;+crearsuscripción()&#10;+actualizarSuscripciones() &#10;+obtenerSuscripciones ()&#10;+listarSuscripciones ()&#10;+cancelarSuscripciones()" style="text;align=left;verticalAlign=top;spacingLeft=4;spacingRight=4;overflow=hidden;rotatable=0;points=[[0,0.5],[1,0.5]];portConstraint=eastwest;fontSize=12;fontColor=#FFFFFF;" parent="78" vertex="1">
                    <mxGeometry y="194" width="190" height="102" as="geometry"/>
                </mxCell>
                <mxCell id="82" value="ReviewProductos" style="swimlane;fontStyle=0;align=center;verticalAlign=top;childLayout=stackLayout;horizontal=1;startSize=26;horizontalStack=0;resizeParent=1;resizeLast=0;collapsible=1;marginBottom=0;rounded=0;shadow=0;strokeWidth=1;fontSize=12;fillColor=#6a00ff;fontColor=#FFFFFF;strokeColor=#3700CC;" parent="1" vertex="1">
                    <mxGeometry x="870" y="920" width="190" height="252" as="geometry">
                        <mxRectangle x="550" y="140" width="160" height="26" as="alternateBounds"/>
                    </mxGeometry>
                </mxCell>
                <mxCell id="83" value="" style="line;html=1;strokeWidth=1;align=left;verticalAlign=middle;spacingTop=-1;spacingLeft=3;spacingRight=3;rotatable=0;labelPosition=right;points=[];portConstraint=eastwest;fontSize=12;fontColor=#FFFFFF;" parent="82" vertex="1">
                    <mxGeometry y="26" width="190" height="8" as="geometry"/>
                </mxCell>
                <mxCell id="84" value="-idReview int (PK)&#10;- idUsuario int (FK)&#10;-idProducto int (FK)&#10;-calificacion: int&#10;-comentario : string&#10;-fecha: date" style="text;align=left;verticalAlign=top;spacingLeft=4;spacingRight=4;overflow=hidden;rotatable=0;points=[[0,0.5],[1,0.5]];portConstraint=eastwest;fontSize=12;fontColor=#FFFFFF;" parent="82" vertex="1">
                    <mxGeometry y="34" width="190" height="116" as="geometry"/>
                </mxCell>
                <mxCell id="85" value="+constructor()&#10;+agregar Review&#10;+obtenerReview &#10;+listarRieviews&#10;+filtrarRieviews&#10;+Actualizarreview()" style="text;align=left;verticalAlign=top;spacingLeft=4;spacingRight=4;overflow=hidden;rotatable=0;points=[[0,0.5],[1,0.5]];portConstraint=eastwest;fontSize=12;fontColor=#FFFFFF;" parent="82" vertex="1">
                    <mxGeometry y="150" width="190" height="102" as="geometry"/>
                </mxCell>
                <mxCell id="86" value="HistorialPagos" style="swimlane;fontStyle=0;align=center;verticalAlign=top;childLayout=stackLayout;horizontal=1;startSize=26;horizontalStack=0;resizeParent=1;resizeLast=0;collapsible=1;marginBottom=0;rounded=0;shadow=0;strokeWidth=1;fontSize=12;fillColor=#6a00ff;fontColor=#FFFFFF;strokeColor=#3700CC;" parent="1" vertex="1">
                    <mxGeometry x="30" y="720" width="190" height="296" as="geometry">
                        <mxRectangle x="550" y="140" width="160" height="26" as="alternateBounds"/>
                    </mxGeometry>
                </mxCell>
                <mxCell id="87" value="" style="line;html=1;strokeWidth=1;align=left;verticalAlign=middle;spacingTop=-1;spacingLeft=3;spacingRight=3;rotatable=0;labelPosition=right;points=[];portConstraint=eastwest;fontSize=12;fontColor=#FFFFFF;" parent="86" vertex="1">
                    <mxGeometry y="26" width="190" height="8" as="geometry"/>
                </mxCell>
                <mxCell id="88" value="- idHistorialPago int (PK)&#10;- idUsuario int (FK)&#10;- idMetodoPago int (FK)&#10;- fecha: date&#10;- hora: time&#10;- monto: float&#10;- estado: string" style="text;align=left;verticalAlign=top;spacingLeft=4;spacingRight=4;overflow=hidden;rotatable=0;points=[[0,0.5],[1,0.5]];portConstraint=eastwest;fontSize=12;fontColor=#FFFFFF;" parent="86" vertex="1">
                    <mxGeometry y="34" width="190" height="160" as="geometry"/>
                </mxCell>
                <mxCell id="89" value="+constructor()&#10;+ crearHistorialPago()&#10;+ obtenerHistorialPagoPorId()&#10;+ actualizarHistorialPago()&#10;+ eliminarHistorialPago()" style="text;align=left;verticalAlign=top;spacingLeft=4;spacingRight=4;overflow=hidden;rotatable=0;points=[[0,0.5],[1,0.5]];portConstraint=eastwest;fontSize=12;fontColor=#FFFFFF;" parent="86" vertex="1">
                    <mxGeometry y="194" width="190" height="102" as="geometry"/>
                </mxCell>
                <mxCell id="94" style="edgeStyle=orthogonalEdgeStyle;rounded=0;html=1;exitX=1;exitY=0.5;exitDx=0;exitDy=0;endArrow=none;endFill=0;entryX=0;entryY=0.75;entryDx=0;entryDy=0;entryPerimeter=0;fillColor=#008a00;strokeColor=#FFFFFF;fontColor=#FFFFFF;" parent="1" source="58" target="6" edge="1">
                    <mxGeometry relative="1" as="geometry">
                        <mxPoint x="310" y="370" as="targetPoint"/>
                        <Array as="points">
                            <mxPoint x="290" y="428"/>
                            <mxPoint x="290" y="370"/>
                            <mxPoint x="450" y="370"/>
                        </Array>
                    </mxGeometry>
                </mxCell>
                <mxCell id="95" value="1" style="edgeLabel;html=1;align=center;verticalAlign=middle;resizable=0;points=[];fontColor=#FFFFFF;" parent="94" vertex="1" connectable="0">
                    <mxGeometry x="0.7546" y="-1" relative="1" as="geometry">
                        <mxPoint x="21" y="9" as="offset"/>
                    </mxGeometry>
                </mxCell>
                <mxCell id="96" value="N" style="edgeLabel;html=1;align=center;verticalAlign=middle;resizable=0;points=[];fontColor=#FFFFFF;" parent="94" vertex="1" connectable="0">
                    <mxGeometry x="-0.8735" y="-1" relative="1" as="geometry">
                        <mxPoint y="11" as="offset"/>
                    </mxGeometry>
                </mxCell>
                <mxCell id="202" value="1" style="edgeLabel;html=1;align=center;verticalAlign=middle;resizable=0;points=[];" parent="94" vertex="1" connectable="0">
                    <mxGeometry x="-0.8777" relative="1" as="geometry">
                        <mxPoint y="-18" as="offset"/>
                    </mxGeometry>
                </mxCell>
                <mxCell id="203" value="1" style="edgeLabel;html=1;align=center;verticalAlign=middle;resizable=0;points=[];" parent="94" vertex="1" connectable="0">
                    <mxGeometry x="0.8834" y="1" relative="1" as="geometry">
                        <mxPoint x="4" y="-9" as="offset"/>
                    </mxGeometry>
                </mxCell>
                <mxCell id="98" style="edgeStyle=orthogonalEdgeStyle;rounded=0;html=1;endArrow=none;endFill=0;fillColor=#008a00;strokeColor=#FFFFFF;fontColor=#FFFFFF;" parent="1" source="52" edge="1">
                    <mxGeometry relative="1" as="geometry">
                        <mxPoint x="485" y="909.9999999999991" as="targetPoint"/>
                        <Array as="points">
                            <mxPoint x="380" y="759"/>
                            <mxPoint x="380" y="860"/>
                            <mxPoint x="485" y="860"/>
                        </Array>
                    </mxGeometry>
                </mxCell>
                <mxCell id="99" value="1" style="edgeLabel;html=1;align=center;verticalAlign=middle;resizable=0;points=[];fontColor=#FFFFFF;" parent="98" vertex="1" connectable="0">
                    <mxGeometry x="-0.716" y="-4" relative="1" as="geometry">
                        <mxPoint as="offset"/>
                    </mxGeometry>
                </mxCell>
                <mxCell id="100" value="N" style="edgeLabel;html=1;align=center;verticalAlign=middle;resizable=0;points=[];fontColor=#FFFFFF;" parent="98" vertex="1" connectable="0">
                    <mxGeometry x="0.6634" relative="1" as="geometry">
                        <mxPoint x="-15" y="36" as="offset"/>
                    </mxGeometry>
                </mxCell>
                <mxCell id="208" value="1" style="edgeLabel;html=1;align=center;verticalAlign=middle;resizable=0;points=[];" parent="98" vertex="1" connectable="0">
                    <mxGeometry x="0.7042" y="-1" relative="1" as="geometry">
                        <mxPoint x="16" y="31" as="offset"/>
                    </mxGeometry>
                </mxCell>
                <mxCell id="209" value="1" style="edgeLabel;html=1;align=center;verticalAlign=middle;resizable=0;points=[];" parent="98" vertex="1" connectable="0">
                    <mxGeometry x="-0.5652" y="-2" relative="1" as="geometry">
                        <mxPoint x="12" y="-30" as="offset"/>
                    </mxGeometry>
                </mxCell>
                <mxCell id="101" style="edgeStyle=orthogonalEdgeStyle;rounded=0;html=1;endArrow=none;endFill=0;fillColor=#008a00;strokeColor=#FFFFFF;fontColor=#FFFFFF;" parent="1" source="21" edge="1">
                    <mxGeometry relative="1" as="geometry">
                        <Array as="points">
                            <mxPoint x="1380" y="789"/>
                            <mxPoint x="1380" y="1103"/>
                        </Array>
                        <mxPoint x="1061" y="1100" as="targetPoint"/>
                    </mxGeometry>
                </mxCell>
                <mxCell id="102" value="N" style="edgeLabel;html=1;align=center;verticalAlign=middle;resizable=0;points=[];fontColor=#FFFFFF;" parent="101" vertex="1" connectable="0">
                    <mxGeometry x="0.901" y="3" relative="1" as="geometry">
                        <mxPoint x="-15" y="14" as="offset"/>
                    </mxGeometry>
                </mxCell>
                <mxCell id="103" value="1" style="edgeLabel;html=1;align=center;verticalAlign=middle;resizable=0;points=[];fontColor=#FFFFFF;" parent="101" vertex="1" connectable="0">
                    <mxGeometry x="-0.8236" y="2" relative="1" as="geometry">
                        <mxPoint x="28" as="offset"/>
                    </mxGeometry>
                </mxCell>
                <mxCell id="237" value="1" style="edgeLabel;html=1;align=center;verticalAlign=middle;resizable=0;points=[];" parent="101" vertex="1" connectable="0">
                    <mxGeometry x="0.9261" y="2" relative="1" as="geometry">
                        <mxPoint x="-6" y="-25" as="offset"/>
                    </mxGeometry>
                </mxCell>
                <mxCell id="238" value="1" style="edgeLabel;html=1;align=center;verticalAlign=middle;resizable=0;points=[];" parent="101" vertex="1" connectable="0">
                    <mxGeometry x="-0.8875" y="-3" relative="1" as="geometry">
                        <mxPoint x="18" y="-6" as="offset"/>
                    </mxGeometry>
                </mxCell>
                <mxCell id="104" style="edgeStyle=orthogonalEdgeStyle;rounded=0;html=1;entryX=-0.012;entryY=0.588;entryDx=0;entryDy=0;entryPerimeter=0;endArrow=none;endFill=0;fillColor=#008a00;strokeColor=#FFFFFF;fontColor=#FFFFFF;" parent="1" source="42" target="19" edge="1">
                    <mxGeometry relative="1" as="geometry"/>
                </mxCell>
                <mxCell id="105" value="N" style="edgeLabel;html=1;align=center;verticalAlign=middle;resizable=0;points=[];fontColor=#FFFFFF;" parent="104" vertex="1" connectable="0">
                    <mxGeometry x="-0.7578" relative="1" as="geometry">
                        <mxPoint y="17" as="offset"/>
                    </mxGeometry>
                </mxCell>
                <mxCell id="106" value="1" style="edgeLabel;html=1;align=center;verticalAlign=middle;resizable=0;points=[];fontColor=#FFFFFF;" parent="104" vertex="1" connectable="0">
                    <mxGeometry x="0.633" y="-2" relative="1" as="geometry">
                        <mxPoint y="15" as="offset"/>
                    </mxGeometry>
                </mxCell>
                <mxCell id="210" value="1" style="edgeLabel;html=1;align=center;verticalAlign=middle;resizable=0;points=[];" parent="104" vertex="1" connectable="0">
                    <mxGeometry x="-0.712" y="1" relative="1" as="geometry">
                        <mxPoint y="-12" as="offset"/>
                    </mxGeometry>
                </mxCell>
                <mxCell id="211" value="1" style="edgeLabel;html=1;align=center;verticalAlign=middle;resizable=0;points=[];" parent="104" vertex="1" connectable="0">
                    <mxGeometry x="0.7492" relative="1" as="geometry">
                        <mxPoint y="-13" as="offset"/>
                    </mxGeometry>
                </mxCell>
                <mxCell id="108" style="edgeStyle=orthogonalEdgeStyle;rounded=0;html=1;endArrow=none;endFill=0;entryX=-0.025;entryY=0.774;entryDx=0;entryDy=0;entryPerimeter=0;fillColor=#008a00;strokeColor=#FFFFFF;fontColor=#FFFFFF;" parent="1" source="14" target="23" edge="1">
                    <mxGeometry relative="1" as="geometry">
                        <mxPoint x="1410" y="410" as="targetPoint"/>
                        <Array as="points">
                            <mxPoint x="1400" y="154"/>
                            <mxPoint x="1400" y="410"/>
                        </Array>
                    </mxGeometry>
                </mxCell>
                <mxCell id="109" value="1" style="edgeLabel;html=1;align=center;verticalAlign=middle;resizable=0;points=[];fontColor=#FFFFFF;" parent="108" vertex="1" connectable="0">
                    <mxGeometry x="-0.9082" y="-1" relative="1" as="geometry">
                        <mxPoint x="-7" y="15" as="offset"/>
                    </mxGeometry>
                </mxCell>
                <mxCell id="110" value="N" style="edgeLabel;html=1;align=center;verticalAlign=middle;resizable=0;points=[];fontColor=#FFFFFF;" parent="108" vertex="1" connectable="0">
                    <mxGeometry x="0.7989" y="1" relative="1" as="geometry">
                        <mxPoint x="31" y="11" as="offset"/>
                    </mxGeometry>
                </mxCell>
                <mxCell id="204" value="1" style="edgeLabel;html=1;align=center;verticalAlign=middle;resizable=0;points=[];" parent="108" vertex="1" connectable="0">
                    <mxGeometry x="0.9271" y="1" relative="1" as="geometry">
                        <mxPoint x="7" y="-19" as="offset"/>
                    </mxGeometry>
                </mxCell>
                <mxCell id="205" value="1" style="edgeLabel;html=1;align=center;verticalAlign=middle;resizable=0;points=[];" parent="108" vertex="1" connectable="0">
                    <mxGeometry x="-0.9518" y="2" relative="1" as="geometry">
                        <mxPoint x="1" y="-12" as="offset"/>
                    </mxGeometry>
                </mxCell>
                <mxCell id="111" style="edgeStyle=orthogonalEdgeStyle;rounded=0;html=1;entryX=0.75;entryY=0;entryDx=0;entryDy=0;endArrow=none;endFill=0;fillColor=#008a00;strokeColor=#FFFFFF;fontColor=#FFFFFF;exitX=1.002;exitY=0.14;exitDx=0;exitDy=0;exitPerimeter=0;" parent="1" source="10" target="11" edge="1">
                    <mxGeometry relative="1" as="geometry">
                        <Array as="points">
                            <mxPoint x="1350" y="-231"/>
                            <mxPoint x="1350" y="-98"/>
                            <mxPoint x="1290" y="-98"/>
                        </Array>
                        <mxPoint x="1330" y="-231" as="sourcePoint"/>
                    </mxGeometry>
                </mxCell>
                <mxCell id="112" value="1" style="edgeLabel;html=1;align=center;verticalAlign=middle;resizable=0;points=[];fontColor=#FFFFFF;" parent="111" vertex="1" connectable="0">
                    <mxGeometry x="0.9079" relative="1" as="geometry">
                        <mxPoint x="10" as="offset"/>
                    </mxGeometry>
                </mxCell>
                <mxCell id="113" value="1" style="edgeLabel;html=1;align=center;verticalAlign=middle;resizable=0;points=[];fontColor=#FFFFFF;" parent="111" vertex="1" connectable="0">
                    <mxGeometry x="-0.763" y="1" relative="1" as="geometry">
                        <mxPoint x="9" y="5" as="offset"/>
                    </mxGeometry>
                </mxCell>
                <mxCell id="251" value="1" style="edgeLabel;html=1;align=center;verticalAlign=middle;resizable=0;points=[];" parent="111" vertex="1" connectable="0">
                    <mxGeometry x="-0.6941" y="2" relative="1" as="geometry">
                        <mxPoint x="-12" y="-5" as="offset"/>
                    </mxGeometry>
                </mxCell>
                <mxCell id="252" value="1" style="edgeLabel;html=1;align=center;verticalAlign=middle;resizable=0;points=[];" parent="111" vertex="1" connectable="0">
                    <mxGeometry x="0.7851" y="-3" relative="1" as="geometry">
                        <mxPoint x="-7" y="18" as="offset"/>
                    </mxGeometry>
                </mxCell>
                <mxCell id="117" style="edgeStyle=orthogonalEdgeStyle;rounded=0;html=1;endArrow=none;endFill=0;fillColor=#008a00;strokeColor=#FFFFFF;fontColor=#FFFFFF;exitX=0.529;exitY=0.997;exitDx=0;exitDy=0;exitPerimeter=0;" parent="1" source="10" edge="1">
                    <mxGeometry relative="1" as="geometry">
                        <Array as="points">
                            <mxPoint x="1245" y="-90"/>
                            <mxPoint x="740" y="-90"/>
                            <mxPoint x="740" y="130"/>
                            <mxPoint x="612" y="130"/>
                            <mxPoint x="612" y="90"/>
                        </Array>
                        <mxPoint x="600" y="90" as="targetPoint"/>
                        <mxPoint x="1245" y="-160" as="sourcePoint"/>
                    </mxGeometry>
                </mxCell>
                <mxCell id="119" value="N" style="edgeLabel;html=1;align=center;verticalAlign=middle;resizable=0;points=[];fontColor=#FFFFFF;" parent="117" vertex="1" connectable="0">
                    <mxGeometry x="-0.9468" y="1" relative="1" as="geometry">
                        <mxPoint x="14" y="-4" as="offset"/>
                    </mxGeometry>
                </mxCell>
                <mxCell id="197" value="1" style="edgeLabel;html=1;align=center;verticalAlign=middle;resizable=0;points=[];" parent="117" vertex="1" connectable="0">
                    <mxGeometry x="-0.9594" y="-3" relative="1" as="geometry">
                        <mxPoint x="-22" y="2" as="offset"/>
                    </mxGeometry>
                </mxCell>
                <mxCell id="198" value="1" style="edgeLabel;html=1;align=center;verticalAlign=middle;resizable=0;points=[];" parent="117" vertex="1" connectable="0">
                    <mxGeometry x="0.8282" relative="1" as="geometry">
                        <mxPoint x="-16" y="10" as="offset"/>
                    </mxGeometry>
                </mxCell>
                <mxCell id="199" value="1" style="edgeLabel;html=1;align=center;verticalAlign=middle;resizable=0;points=[];" parent="117" vertex="1" connectable="0">
                    <mxGeometry x="0.8518" y="-1" relative="1" as="geometry">
                        <mxPoint x="-5" y="-9" as="offset"/>
                    </mxGeometry>
                </mxCell>
                <mxCell id="120" style="edgeStyle=orthogonalEdgeStyle;rounded=0;html=1;endArrow=none;endFill=0;fillColor=#008a00;strokeColor=#FFFFFF;fontColor=#FFFFFF;" parent="1" source="73" target="3" edge="1">
                    <mxGeometry relative="1" as="geometry">
                        <Array as="points">
                            <mxPoint x="620" y="-81"/>
                            <mxPoint x="620" y="5"/>
                            <mxPoint x="530" y="5"/>
                        </Array>
                    </mxGeometry>
                </mxCell>
                <mxCell id="121" value="1" style="edgeLabel;html=1;align=center;verticalAlign=middle;resizable=0;points=[];fontColor=#FFFFFF;" parent="120" vertex="1" connectable="0">
                    <mxGeometry x="0.6202" y="2" relative="1" as="geometry">
                        <mxPoint x="5" y="13" as="offset"/>
                    </mxGeometry>
                </mxCell>
                <mxCell id="122" value="N" style="edgeLabel;html=1;align=center;verticalAlign=middle;resizable=0;points=[];fontColor=#FFFFFF;" parent="120" vertex="1" connectable="0">
                    <mxGeometry x="-0.7636" y="-1" relative="1" as="geometry">
                        <mxPoint x="11" y="24" as="offset"/>
                    </mxGeometry>
                </mxCell>
                <mxCell id="245" value="1" style="edgeLabel;html=1;align=center;verticalAlign=middle;resizable=0;points=[];" parent="120" vertex="1" connectable="0">
                    <mxGeometry x="0.7486" y="-2" relative="1" as="geometry">
                        <mxPoint x="-8" y="7" as="offset"/>
                    </mxGeometry>
                </mxCell>
                <mxCell id="246" value="1" style="edgeLabel;html=1;align=center;verticalAlign=middle;resizable=0;points=[];" parent="120" vertex="1" connectable="0">
                    <mxGeometry x="-0.678" y="-1" relative="1" as="geometry">
                        <mxPoint x="-9" y="14" as="offset"/>
                    </mxGeometry>
                </mxCell>
                <mxCell id="123" value="Roles" style="swimlane;fontStyle=0;align=center;verticalAlign=top;childLayout=stackLayout;horizontal=1;startSize=26;horizontalStack=0;resizeParent=1;resizeLast=0;collapsible=1;marginBottom=0;rounded=0;shadow=0;strokeWidth=1;fontSize=12;fillColor=#6a00ff;fontColor=#FFFFFF;strokeColor=#3700CC;" parent="1" vertex="1">
                    <mxGeometry x="414" y="-600" width="190" height="250" as="geometry">
                        <mxRectangle x="550" y="140" width="160" height="26" as="alternateBounds"/>
                    </mxGeometry>
                </mxCell>
                <mxCell id="124" value="- IdRol: int (PK)&#10;- nombreRol: string&#10;" style="text;align=left;verticalAlign=top;spacingLeft=4;spacingRight=4;overflow=hidden;rotatable=0;points=[[0,0.5],[1,0.5]];portConstraint=eastwest;fontSize=12;fontColor=#FFFFFF;" parent="123" vertex="1">
                    <mxGeometry y="26" width="190" height="114" as="geometry"/>
                </mxCell>
                <mxCell id="125" value="" style="line;html=1;strokeWidth=1;align=left;verticalAlign=middle;spacingTop=-1;spacingLeft=3;spacingRight=3;rotatable=0;labelPosition=right;points=[];portConstraint=eastwest;fontSize=12;fontColor=#FFFFFF;" parent="123" vertex="1">
                    <mxGeometry y="140" width="190" height="8" as="geometry"/>
                </mxCell>
                <mxCell id="126" value="+constructor()&#10;+eliminarRol()&#10;+obtenerRol()&#10;+asignarRol()&#10;+listarRol()&#10;+actualizarRol()" style="text;align=left;verticalAlign=top;spacingLeft=4;spacingRight=4;overflow=hidden;rotatable=0;points=[[0,0.5],[1,0.5]];portConstraint=eastwest;fontSize=12;fontColor=#FFFFFF;" parent="123" vertex="1">
                    <mxGeometry y="148" width="190" height="102" as="geometry"/>
                </mxCell>
                <mxCell id="127" style="edgeStyle=none;html=1;endArrow=none;endFill=0;fillColor=#008a00;strokeColor=#FFFFFF;fontColor=#FFFFFF;" parent="1" source="126" edge="1">
                    <mxGeometry relative="1" as="geometry">
                        <mxPoint x="510" y="-280" as="targetPoint"/>
                    </mxGeometry>
                </mxCell>
                <mxCell id="128" value="1" style="edgeLabel;html=1;align=center;verticalAlign=middle;resizable=0;points=[];fontColor=#FFFFFF;" parent="127" vertex="1" connectable="0">
                    <mxGeometry x="-0.449" y="-2" relative="1" as="geometry">
                        <mxPoint x="-8" y="-9" as="offset"/>
                    </mxGeometry>
                </mxCell>
                <mxCell id="129" value="N" style="edgeLabel;html=1;align=center;verticalAlign=middle;resizable=0;points=[];fontColor=#FFFFFF;" parent="127" vertex="1" connectable="0">
                    <mxGeometry x="0.6702" y="2" relative="1" as="geometry">
                        <mxPoint x="-12" as="offset"/>
                    </mxGeometry>
                </mxCell>
                <mxCell id="247" value="1" style="edgeLabel;html=1;align=center;verticalAlign=middle;resizable=0;points=[];" parent="127" vertex="1" connectable="0">
                    <mxGeometry x="-0.6468" y="-1" relative="1" as="geometry">
                        <mxPoint x="11" as="offset"/>
                    </mxGeometry>
                </mxCell>
                <mxCell id="248" value="1" style="edgeLabel;html=1;align=center;verticalAlign=middle;resizable=0;points=[];" parent="127" vertex="1" connectable="0">
                    <mxGeometry x="0.6202" y="-2" relative="1" as="geometry">
                        <mxPoint x="12" as="offset"/>
                    </mxGeometry>
                </mxCell>
                <mxCell id="130" style="edgeStyle=none;html=1;exitX=0;exitY=0.5;exitDx=0;exitDy=0;endArrow=none;endFill=0;entryX=1.015;entryY=0.051;entryDx=0;entryDy=0;entryPerimeter=0;fillColor=#008a00;strokeColor=#FFFFFF;fontColor=#FFFFFF;" parent="1" source="81" target="3" edge="1">
                    <mxGeometry relative="1" as="geometry">
                        <mxPoint x="680" y="60" as="targetPoint"/>
                        <Array as="points">
                            <mxPoint x="670" y="-155"/>
                            <mxPoint x="670" y="-60"/>
                            <mxPoint x="670" y="59"/>
                        </Array>
                    </mxGeometry>
                </mxCell>
                <mxCell id="131" value="&amp;nbsp;N" style="edgeLabel;html=1;align=center;verticalAlign=middle;resizable=0;points=[];fontColor=#FFFFFF;" parent="130" vertex="1" connectable="0">
                    <mxGeometry x="-0.9034" y="3" relative="1" as="geometry">
                        <mxPoint y="12" as="offset"/>
                    </mxGeometry>
                </mxCell>
                <mxCell id="132" value="1" style="edgeLabel;html=1;align=center;verticalAlign=middle;resizable=0;points=[];fontColor=#FFFFFF;" parent="130" vertex="1" connectable="0">
                    <mxGeometry x="0.9422" y="3" relative="1" as="geometry">
                        <mxPoint y="8" as="offset"/>
                    </mxGeometry>
                </mxCell>
                <mxCell id="196" value="1" style="edgeLabel;html=1;align=center;verticalAlign=middle;resizable=0;points=[];" parent="130" vertex="1" connectable="0">
                    <mxGeometry x="-0.9177" y="-1" relative="1" as="geometry">
                        <mxPoint y="-14" as="offset"/>
                    </mxGeometry>
                </mxCell>
                <mxCell id="133" style="edgeStyle=orthogonalEdgeStyle;rounded=1;html=1;exitX=1;exitY=0.5;exitDx=0;exitDy=0;endArrow=none;endFill=0;entryX=0.439;entryY=1.001;entryDx=0;entryDy=0;entryPerimeter=0;fillColor=#008a00;strokeColor=#FFFFFF;fontColor=#FFFFFF;" parent="1" source="88" target="6" edge="1">
                    <mxGeometry relative="1" as="geometry">
                        <mxPoint x="446" y="440" as="targetPoint"/>
                        <Array as="points">
                            <mxPoint x="310" y="834"/>
                            <mxPoint x="310" y="520"/>
                            <mxPoint x="520" y="520"/>
                        </Array>
                    </mxGeometry>
                </mxCell>
                <mxCell id="134" value="N" style="edgeLabel;html=1;align=center;verticalAlign=middle;resizable=0;points=[];fontColor=#FFFFFF;" parent="133" vertex="1" connectable="0">
                    <mxGeometry x="-0.9466" y="2" relative="1" as="geometry">
                        <mxPoint y="-12" as="offset"/>
                    </mxGeometry>
                </mxCell>
                <mxCell id="135" value="1" style="edgeLabel;html=1;align=center;verticalAlign=middle;resizable=0;points=[];fontColor=#FFFFFF;" parent="133" vertex="1" connectable="0">
                    <mxGeometry x="0.9183" y="-1" relative="1" as="geometry">
                        <mxPoint x="-11" as="offset"/>
                    </mxGeometry>
                </mxCell>
                <mxCell id="228" value="1" style="edgeLabel;html=1;align=center;verticalAlign=middle;resizable=0;points=[];" parent="133" vertex="1" connectable="0">
                    <mxGeometry x="-0.9489" relative="1" as="geometry">
                        <mxPoint y="16" as="offset"/>
                    </mxGeometry>
                </mxCell>
                <mxCell id="229" value="1" style="edgeLabel;html=1;align=center;verticalAlign=middle;resizable=0;points=[];" parent="133" vertex="1" connectable="0">
                    <mxGeometry x="0.9282" y="-2" relative="1" as="geometry">
                        <mxPoint x="8" y="3" as="offset"/>
                    </mxGeometry>
                </mxCell>
                <mxCell id="136" style="edgeStyle=orthogonalEdgeStyle;rounded=1;html=1;endArrow=none;endFill=0;fillColor=#008a00;strokeColor=#FFFFFF;fontColor=#FFFFFF;" parent="1" source="6" target="14" edge="1">
                    <mxGeometry relative="1" as="geometry">
                        <mxPoint x="1250" y="210" as="targetPoint"/>
                        <Array as="points">
                            <mxPoint x="1250" y="270"/>
                        </Array>
                    </mxGeometry>
                </mxCell>
                <mxCell id="137" value="1" style="edgeLabel;html=1;align=center;verticalAlign=middle;resizable=0;points=[];fontColor=#FFFFFF;" parent="136" vertex="1" connectable="0">
                    <mxGeometry x="-0.8364" y="-2" relative="1" as="geometry">
                        <mxPoint x="-49" y="8" as="offset"/>
                    </mxGeometry>
                </mxCell>
                <mxCell id="138" value="N" style="edgeLabel;html=1;align=center;verticalAlign=middle;resizable=0;points=[];fontColor=#FFFFFF;" parent="136" vertex="1" connectable="0">
                    <mxGeometry x="0.9462" relative="1" as="geometry">
                        <mxPoint x="10" y="1" as="offset"/>
                    </mxGeometry>
                </mxCell>
                <mxCell id="192" value="1" style="edgeLabel;html=1;align=center;verticalAlign=middle;resizable=0;points=[];" parent="136" vertex="1" connectable="0">
                    <mxGeometry x="0.955" y="2" relative="1" as="geometry">
                        <mxPoint x="-7" as="offset"/>
                    </mxGeometry>
                </mxCell>
                <mxCell id="193" value="1" style="edgeLabel;html=1;align=center;verticalAlign=middle;resizable=0;points=[];" parent="136" vertex="1" connectable="0">
                    <mxGeometry x="-0.9257" y="1" relative="1" as="geometry">
                        <mxPoint x="-16" y="-9" as="offset"/>
                    </mxGeometry>
                </mxCell>
                <mxCell id="139" style="edgeStyle=orthogonalEdgeStyle;rounded=1;html=1;endArrow=none;endFill=0;entryX=-0.028;entryY=0.064;entryDx=0;entryDy=0;entryPerimeter=0;fillColor=#008a00;strokeColor=#FFFFFF;fontColor=#FFFFFF;" parent="1" source="6" target="84" edge="1">
                    <mxGeometry relative="1" as="geometry">
                        <mxPoint x="700" y="1010.0000000000005" as="targetPoint"/>
                    </mxGeometry>
                </mxCell>
                <mxCell id="140" value="1" style="edgeLabel;html=1;align=center;verticalAlign=middle;resizable=0;points=[];fontColor=#FFFFFF;" parent="139" vertex="1" connectable="0">
                    <mxGeometry x="-0.9531" y="2" relative="1" as="geometry">
                        <mxPoint y="18" as="offset"/>
                    </mxGeometry>
                </mxCell>
                <mxCell id="141" value="N" style="edgeLabel;html=1;align=center;verticalAlign=middle;resizable=0;points=[];fontColor=#FFFFFF;" parent="139" vertex="1" connectable="0">
                    <mxGeometry x="0.9499" y="4" relative="1" as="geometry">
                        <mxPoint y="20" as="offset"/>
                    </mxGeometry>
                </mxCell>
                <mxCell id="226" value="1" style="edgeLabel;html=1;align=center;verticalAlign=middle;resizable=0;points=[];" parent="139" vertex="1" connectable="0">
                    <mxGeometry x="0.9555" relative="1" as="geometry">
                        <mxPoint y="-14" as="offset"/>
                    </mxGeometry>
                </mxCell>
                <mxCell id="227" value="1" style="edgeLabel;html=1;align=center;verticalAlign=middle;resizable=0;points=[];" parent="139" vertex="1" connectable="0">
                    <mxGeometry x="-0.9503" y="1" relative="1" as="geometry">
                        <mxPoint x="-2" y="-13" as="offset"/>
                    </mxGeometry>
                </mxCell>
                <mxCell id="142" style="edgeStyle=orthogonalEdgeStyle;rounded=0;html=1;endArrow=none;endFill=0;fillColor=#008a00;strokeColor=#FFFFFF;fontColor=#FFFFFF;" parent="1" source="6" edge="1">
                    <mxGeometry relative="1" as="geometry">
                        <mxPoint x="440" y="559.9999999999991" as="targetPoint"/>
                        <Array as="points">
                            <mxPoint x="410" y="320"/>
                            <mxPoint x="410" y="560"/>
                        </Array>
                    </mxGeometry>
                </mxCell>
                <mxCell id="143" value="1" style="edgeLabel;html=1;align=center;verticalAlign=middle;resizable=0;points=[];fontColor=#FFFFFF;" parent="142" vertex="1" connectable="0">
                    <mxGeometry x="-0.748" y="-3" relative="1" as="geometry">
                        <mxPoint x="-7" y="5" as="offset"/>
                    </mxGeometry>
                </mxCell>
                <mxCell id="144" value="1" style="edgeLabel;html=1;align=center;verticalAlign=middle;resizable=0;points=[];fontColor=#FFFFFF;" parent="142" vertex="1" connectable="0">
                    <mxGeometry x="0.8565" relative="1" as="geometry">
                        <mxPoint x="-28" y="-9" as="offset"/>
                    </mxGeometry>
                </mxCell>
                <mxCell id="145" style="edgeStyle=orthogonalEdgeStyle;rounded=0;html=1;entryX=0.5;entryY=0;entryDx=0;entryDy=0;endArrow=none;endFill=0;fillColor=#008a00;strokeColor=#FFFFFF;fontColor=#FFFFFF;" parent="1" source="4" target="66" edge="1">
                    <mxGeometry relative="1" as="geometry">
                        <Array as="points">
                            <mxPoint x="640" y="180"/>
                            <mxPoint x="640" y="240"/>
                            <mxPoint x="1275" y="240"/>
                        </Array>
                    </mxGeometry>
                </mxCell>
                <mxCell id="146" value="1" style="edgeLabel;html=1;align=center;verticalAlign=middle;resizable=0;points=[];fontColor=#FFFFFF;" parent="145" vertex="1" connectable="0">
                    <mxGeometry x="-0.8613" y="-1" relative="1" as="geometry">
                        <mxPoint x="11" as="offset"/>
                    </mxGeometry>
                </mxCell>
                <mxCell id="147" value="N" style="edgeLabel;html=1;align=center;verticalAlign=middle;resizable=0;points=[];fontColor=#FFFFFF;" parent="145" vertex="1" connectable="0">
                    <mxGeometry x="0.9301" relative="1" as="geometry">
                        <mxPoint x="15" as="offset"/>
                    </mxGeometry>
                </mxCell>
                <mxCell id="256" value="1" style="edgeLabel;html=1;align=center;verticalAlign=middle;resizable=0;points=[];" parent="145" vertex="1" connectable="0">
                    <mxGeometry x="0.9378" y="-2" relative="1" as="geometry">
                        <mxPoint x="-13" as="offset"/>
                    </mxGeometry>
                </mxCell>
                <mxCell id="257" value="1" style="edgeLabel;html=1;align=center;verticalAlign=middle;resizable=0;points=[];" parent="145" vertex="1" connectable="0">
                    <mxGeometry x="-0.8692" relative="1" as="geometry">
                        <mxPoint x="-10" as="offset"/>
                    </mxGeometry>
                </mxCell>
                <mxCell id="148" style="edgeStyle=orthogonalEdgeStyle;rounded=0;html=1;endArrow=none;endFill=0;fillColor=#008a00;strokeColor=#FFFFFF;fontColor=#FFFFFF;entryX=0.193;entryY=1.007;entryDx=0;entryDy=0;entryPerimeter=0;" parent="1" source="50" target="14" edge="1">
                    <mxGeometry relative="1" as="geometry">
                        <Array as="points">
                            <mxPoint x="790" y="643"/>
                            <mxPoint x="790" y="230"/>
                            <mxPoint x="1200" y="230"/>
                            <mxPoint x="1200" y="196"/>
                        </Array>
                    </mxGeometry>
                </mxCell>
                <mxCell id="149" value="1" style="edgeLabel;html=1;align=center;verticalAlign=middle;resizable=0;points=[];fontColor=#FFFFFF;" parent="148" vertex="1" connectable="0">
                    <mxGeometry x="-0.9504" y="-1" relative="1" as="geometry">
                        <mxPoint x="5" y="6" as="offset"/>
                    </mxGeometry>
                </mxCell>
                <mxCell id="150" value="1" style="edgeLabel;html=1;align=center;verticalAlign=middle;resizable=0;points=[];fontColor=#FFFFFF;" parent="148" vertex="1" connectable="0">
                    <mxGeometry x="0.9218" y="3" relative="1" as="geometry">
                        <mxPoint x="18" y="-17" as="offset"/>
                    </mxGeometry>
                </mxCell>
                <mxCell id="243" value="1" style="edgeLabel;html=1;align=center;verticalAlign=middle;resizable=0;points=[];" parent="148" vertex="1" connectable="0">
                    <mxGeometry x="0.9095" relative="1" as="geometry">
                        <mxPoint x="3" y="-20" as="offset"/>
                    </mxGeometry>
                </mxCell>
                <mxCell id="244" value="1" style="edgeLabel;html=1;align=center;verticalAlign=middle;resizable=0;points=[];" parent="148" vertex="1" connectable="0">
                    <mxGeometry x="-0.8972" y="-2" relative="1" as="geometry">
                        <mxPoint x="-24" y="-25" as="offset"/>
                    </mxGeometry>
                </mxCell>
                <mxCell id="151" value="PedidosProducto" style="swimlane;fontStyle=0;align=center;verticalAlign=top;childLayout=stackLayout;horizontal=1;startSize=26;horizontalStack=0;resizeParent=1;resizeLast=0;collapsible=1;marginBottom=0;rounded=0;shadow=0;strokeWidth=1;fontSize=12;fillColor=#6a00ff;fontColor=#FFFFFF;strokeColor=#3700CC;" parent="1" vertex="1">
                    <mxGeometry x="1160" y="-690" width="160" height="200" as="geometry">
                        <mxRectangle x="550" y="140" width="160" height="26" as="alternateBounds"/>
                    </mxGeometry>
                </mxCell>
                <mxCell id="152" value="-idPedidosProductos (PK)&#10;- idPedido: int (FK)&#10;-idProducto int (FK)&#10;- cantidad int&#10;" style="text;align=left;verticalAlign=top;spacingLeft=4;spacingRight=4;overflow=hidden;rotatable=0;points=[[0,0.5],[1,0.5]];portConstraint=eastwest;fontSize=12;fontColor=#FFFFFF;" parent="151" vertex="1">
                    <mxGeometry y="26" width="160" height="84" as="geometry"/>
                </mxCell>
                <mxCell id="153" value="" style="line;html=1;strokeWidth=1;align=left;verticalAlign=middle;spacingTop=-1;spacingLeft=3;spacingRight=3;rotatable=0;labelPosition=right;points=[];portConstraint=eastwest;fontSize=12;fontColor=#FFFFFF;" parent="151" vertex="1">
                    <mxGeometry y="110" width="160" height="8" as="geometry"/>
                </mxCell>
                <mxCell id="154" value=" +constructor()&#10; + agregarProducto()&#10; + obtenerProductos()&#10; + calcularTotal()&#10; + actualizarEstado()" style="text;align=left;verticalAlign=top;spacingLeft=4;spacingRight=4;overflow=hidden;rotatable=0;points=[[0,0.5],[1,0.5]];portConstraint=eastwest;fontSize=12;fontColor=#FFFFFF;" parent="151" vertex="1">
                    <mxGeometry y="118" width="160" height="82" as="geometry"/>
                </mxCell>
                <mxCell id="155" style="edgeStyle=orthogonalEdgeStyle;rounded=1;html=1;endArrow=none;endFill=0;fillColor=#008a00;strokeColor=#FFFFFF;fontColor=#FFFFFF;" parent="1" source="154" target="11" edge="1">
                    <mxGeometry relative="1" as="geometry">
                        <Array as="points">
                            <mxPoint x="1380" y="-531"/>
                            <mxPoint x="1380" y="-130"/>
                            <mxPoint x="1250" y="-130"/>
                        </Array>
                    </mxGeometry>
                </mxCell>
                <mxCell id="156" value="1" style="edgeLabel;html=1;align=center;verticalAlign=middle;resizable=0;points=[];fontColor=#FFFFFF;" parent="155" vertex="1" connectable="0">
                    <mxGeometry x="0.9274" y="2" relative="1" as="geometry">
                        <mxPoint x="8" as="offset"/>
                    </mxGeometry>
                </mxCell>
                <mxCell id="157" value="N" style="edgeLabel;html=1;align=center;verticalAlign=middle;resizable=0;points=[];fontColor=#FFFFFF;" parent="155" vertex="1" connectable="0">
                    <mxGeometry x="-0.8799" y="-4" relative="1" as="geometry">
                        <mxPoint x="-33" y="-13" as="offset"/>
                    </mxGeometry>
                </mxCell>
                <mxCell id="230" value="1" style="edgeLabel;html=1;align=center;verticalAlign=middle;resizable=0;points=[];" parent="155" vertex="1" connectable="0">
                    <mxGeometry x="-0.9699" relative="1" as="geometry">
                        <mxPoint y="11" as="offset"/>
                    </mxGeometry>
                </mxCell>
                <mxCell id="231" value="1" style="edgeLabel;html=1;align=center;verticalAlign=middle;resizable=0;points=[];" parent="155" vertex="1" connectable="0">
                    <mxGeometry x="0.9219" y="-1" relative="1" as="geometry">
                        <mxPoint x="-8" as="offset"/>
                    </mxGeometry>
                </mxCell>
                <mxCell id="158" style="edgeStyle=orthogonalEdgeStyle;rounded=1;html=1;entryX=0.75;entryY=0;entryDx=0;entryDy=0;endArrow=none;endFill=0;fillColor=#008a00;strokeColor=#FFFFFF;fontColor=#FFFFFF;" parent="1" source="14" target="62" edge="1">
                    <mxGeometry relative="1" as="geometry">
                        <Array as="points">
                            <mxPoint x="1140" y="154"/>
                            <mxPoint x="1140" y="260"/>
                            <mxPoint x="1033" y="260"/>
                        </Array>
                    </mxGeometry>
                </mxCell>
                <mxCell id="159" value="1" style="edgeLabel;html=1;align=center;verticalAlign=middle;resizable=0;points=[];fontColor=#FFFFFF;" parent="158" vertex="1" connectable="0">
                    <mxGeometry x="0.888" y="-1" relative="1" as="geometry">
                        <mxPoint x="9" y="-3" as="offset"/>
                    </mxGeometry>
                </mxCell>
                <mxCell id="160" value="1" style="edgeLabel;html=1;align=center;verticalAlign=middle;resizable=0;points=[];fontColor=#FFFFFF;" parent="158" vertex="1" connectable="0">
                    <mxGeometry x="-0.71" relative="1" as="geometry">
                        <mxPoint x="20" as="offset"/>
                    </mxGeometry>
                </mxCell>
                <mxCell id="206" value="1" style="edgeLabel;html=1;align=center;verticalAlign=middle;resizable=0;points=[];" parent="158" vertex="1" connectable="0">
                    <mxGeometry x="0.9091" y="2" relative="1" as="geometry">
                        <mxPoint x="-14" y="-6" as="offset"/>
                    </mxGeometry>
                </mxCell>
                <mxCell id="207" value="1" style="edgeLabel;html=1;align=center;verticalAlign=middle;resizable=0;points=[];" parent="158" vertex="1" connectable="0">
                    <mxGeometry x="-0.9388" y="-1" relative="1" as="geometry">
                        <mxPoint y="-13" as="offset"/>
                    </mxGeometry>
                </mxCell>
                <mxCell id="161" style="edgeStyle=orthogonalEdgeStyle;rounded=1;html=1;entryX=-0.025;entryY=-0.019;entryDx=0;entryDy=0;entryPerimeter=0;endArrow=none;endFill=0;fillColor=#008a00;strokeColor=#FFFFFF;fontColor=#FFFFFF;" parent="1" source="30" target="19" edge="1">
                    <mxGeometry relative="1" as="geometry">
                        <Array as="points">
                            <mxPoint x="1130" y="154"/>
                            <mxPoint x="1130" y="614"/>
                        </Array>
                    </mxGeometry>
                </mxCell>
                <mxCell id="162" value="N" style="edgeLabel;html=1;align=center;verticalAlign=middle;resizable=0;points=[];fontColor=#FFFFFF;" parent="161" vertex="1" connectable="0">
                    <mxGeometry x="-0.9685" y="-2" relative="1" as="geometry">
                        <mxPoint y="-16" as="offset"/>
                    </mxGeometry>
                </mxCell>
                <mxCell id="163" value="1" style="edgeLabel;html=1;align=center;verticalAlign=middle;resizable=0;points=[];fontColor=#FFFFFF;" parent="161" vertex="1" connectable="0">
                    <mxGeometry x="0.9199" y="4" relative="1" as="geometry">
                        <mxPoint x="16" y="-10" as="offset"/>
                    </mxGeometry>
                </mxCell>
                <mxCell id="241" value="1" style="edgeLabel;html=1;align=center;verticalAlign=middle;resizable=0;points=[];" parent="161" vertex="1" connectable="0">
                    <mxGeometry x="-0.97" relative="1" as="geometry">
                        <mxPoint x="1" y="16" as="offset"/>
                    </mxGeometry>
                </mxCell>
                <mxCell id="242" value="1" style="edgeLabel;html=1;align=center;verticalAlign=middle;resizable=0;points=[];" parent="161" vertex="1" connectable="0">
                    <mxGeometry x="0.9517" y="-2" relative="1" as="geometry">
                        <mxPoint x="3" y="14" as="offset"/>
                    </mxGeometry>
                </mxCell>
                <mxCell id="164" value="ProductosCategorias" style="swimlane;fontStyle=0;align=center;verticalAlign=top;childLayout=stackLayout;horizontal=1;startSize=26;horizontalStack=0;resizeParent=1;resizeLast=0;collapsible=1;marginBottom=0;rounded=0;shadow=0;strokeWidth=1;fontSize=12;fillColor=#6a00ff;fontColor=#FFFFFF;strokeColor=#3700CC;" parent="1" vertex="1">
                    <mxGeometry x="1670" y="590" width="190" height="230" as="geometry">
                        <mxRectangle x="550" y="140" width="160" height="26" as="alternateBounds"/>
                    </mxGeometry>
                </mxCell>
                <mxCell id="165" value="- idProdcutosCategoria (PK)&#10;- idProducto (FK)&#10;-idCategoria (FK)" style="text;align=left;verticalAlign=top;spacingLeft=4;spacingRight=4;overflow=hidden;rotatable=0;points=[[0,0.5],[1,0.5]];portConstraint=eastwest;fontSize=12;fontColor=#FFFFFF;" parent="164" vertex="1">
                    <mxGeometry y="26" width="190" height="84" as="geometry"/>
                </mxCell>
                <mxCell id="166" value="" style="line;html=1;strokeWidth=1;align=left;verticalAlign=middle;spacingTop=-1;spacingLeft=3;spacingRight=3;rotatable=0;labelPosition=right;points=[];portConstraint=eastwest;fontSize=12;fontColor=#FFFFFF;" parent="164" vertex="1">
                    <mxGeometry y="110" width="190" height="8" as="geometry"/>
                </mxCell>
                <mxCell id="167" value="+ Constructor()&#10;+ crearCategoria()&#10;+ obtenerCategoriaPorId()&#10;+ actualizarCategoria()&#10;+ eliminarCategoria()" style="text;align=left;verticalAlign=top;spacingLeft=4;spacingRight=4;overflow=hidden;rotatable=0;points=[[0,0.5],[1,0.5]];portConstraint=eastwest;fontSize=12;fontColor=#FFFFFF;" parent="164" vertex="1">
                    <mxGeometry y="118" width="190" height="82" as="geometry"/>
                </mxCell>
                <mxCell id="168" style="edgeStyle=orthogonalEdgeStyle;rounded=1;html=1;entryX=-0.006;entryY=0.666;entryDx=0;entryDy=0;entryPerimeter=0;endArrow=none;endFill=0;fillColor=#008a00;strokeColor=#FFFFFF;fontColor=#FFFFFF;" parent="1" source="19" target="165" edge="1">
                    <mxGeometry relative="1" as="geometry">
                        <Array as="points">
                            <mxPoint x="1669" y="673"/>
                        </Array>
                    </mxGeometry>
                </mxCell>
                <mxCell id="169" value="1" style="edgeLabel;html=1;align=center;verticalAlign=middle;resizable=0;points=[];fontColor=#FFFFFF;" parent="168" vertex="1" connectable="0">
                    <mxGeometry x="-0.7468" y="1" relative="1" as="geometry">
                        <mxPoint y="8" as="offset"/>
                    </mxGeometry>
                </mxCell>
                <mxCell id="170" value="N" style="edgeLabel;html=1;align=center;verticalAlign=middle;resizable=0;points=[];fontColor=#FFFFFF;" parent="168" vertex="1" connectable="0">
                    <mxGeometry x="0.7689" y="-2" relative="1" as="geometry">
                        <mxPoint y="5" as="offset"/>
                    </mxGeometry>
                </mxCell>
                <mxCell id="171" style="edgeStyle=orthogonalEdgeStyle;rounded=1;html=1;entryX=-0.014;entryY=0.62;entryDx=0;entryDy=0;entryPerimeter=0;endArrow=none;endFill=0;fillColor=#008a00;strokeColor=#FFFFFF;fontColor=#FFFFFF;" parent="1" source="165" target="46" edge="1">
                    <mxGeometry relative="1" as="geometry"/>
                </mxCell>
                <mxCell id="172" value="N" style="edgeLabel;html=1;align=center;verticalAlign=middle;resizable=0;points=[];fontColor=#FFFFFF;" parent="171" vertex="1" connectable="0">
                    <mxGeometry x="-0.7303" y="1" relative="1" as="geometry">
                        <mxPoint x="-5" y="-7" as="offset"/>
                    </mxGeometry>
                </mxCell>
                <mxCell id="173" value="1" style="edgeLabel;html=1;align=center;verticalAlign=middle;resizable=0;points=[];fontColor=#FFFFFF;" parent="171" vertex="1" connectable="0">
                    <mxGeometry x="0.7282" y="2" relative="1" as="geometry">
                        <mxPoint x="-1" y="-6" as="offset"/>
                    </mxGeometry>
                </mxCell>
                <mxCell id="235" value="1" style="edgeLabel;html=1;align=center;verticalAlign=middle;resizable=0;points=[];" parent="171" vertex="1" connectable="0">
                    <mxGeometry x="0.2954" y="1" relative="1" as="geometry">
                        <mxPoint x="21" y="13" as="offset"/>
                    </mxGeometry>
                </mxCell>
                <mxCell id="236" value="1" style="edgeLabel;html=1;align=center;verticalAlign=middle;resizable=0;points=[];" parent="171" vertex="1" connectable="0">
                    <mxGeometry x="-0.2537" y="-1" relative="1" as="geometry">
                        <mxPoint x="-30" y="11" as="offset"/>
                    </mxGeometry>
                </mxCell>
                <mxCell id="177" style="edgeStyle=orthogonalEdgeStyle;rounded=0;html=1;endArrow=none;endFill=0;fillColor=#008a00;strokeColor=#FFFFFF;fontColor=#FFFFFF;entryX=0;entryY=0.5;entryDx=0;entryDy=0;" parent="1" target="76" edge="1">
                    <mxGeometry relative="1" as="geometry">
                        <Array as="points">
                            <mxPoint x="860" y="150"/>
                            <mxPoint x="860" y="-70"/>
                            <mxPoint x="1400" y="-70"/>
                            <mxPoint x="1400" y="-142"/>
                        </Array>
                        <mxPoint x="610" y="150" as="sourcePoint"/>
                        <mxPoint x="1540" y="-141.92000000000007" as="targetPoint"/>
                    </mxGeometry>
                </mxCell>
                <mxCell id="178" value="1" style="edgeLabel;html=1;align=center;verticalAlign=middle;resizable=0;points=[];fontColor=#FFFFFF;" parent="177" vertex="1" connectable="0">
                    <mxGeometry x="-0.8855" y="-6" relative="1" as="geometry">
                        <mxPoint x="101" y="-16" as="offset"/>
                    </mxGeometry>
                </mxCell>
                <mxCell id="179" value="1" style="edgeLabel;html=1;align=center;verticalAlign=middle;resizable=0;points=[];fontColor=#FFFFFF;" parent="177" vertex="1" connectable="0">
                    <mxGeometry x="0.9259" relative="1" as="geometry">
                        <mxPoint y="-10" as="offset"/>
                    </mxGeometry>
                </mxCell>
                <mxCell id="214" value="1" style="edgeLabel;html=1;align=center;verticalAlign=middle;resizable=0;points=[];" parent="177" vertex="1" connectable="0">
                    <mxGeometry x="0.9506" y="-2" relative="1" as="geometry">
                        <mxPoint x="-15" y="8" as="offset"/>
                    </mxGeometry>
                </mxCell>
                <mxCell id="215" value="1" style="edgeLabel;html=1;align=center;verticalAlign=middle;resizable=0;points=[];" parent="177" vertex="1" connectable="0">
                    <mxGeometry x="-0.6809" y="-2" relative="1" as="geometry">
                        <mxPoint x="-59" y="18" as="offset"/>
                    </mxGeometry>
                </mxCell>
                <mxCell id="180" value="1" style="edgeStyle=orthogonalEdgeStyle;rounded=1;html=1;entryX=0;entryY=0.5;entryDx=0;entryDy=0;endArrow=none;endFill=0;fillColor=#008a00;strokeColor=#FFFFFF;fontColor=#FFFFFF;" parent="1" source="40" target="88" edge="1">
                    <mxGeometry x="-0.942" y="-14" relative="1" as="geometry">
                        <mxPoint as="offset"/>
                    </mxGeometry>
                </mxCell>
                <mxCell id="182" value="1" style="edgeLabel;html=1;align=center;verticalAlign=middle;resizable=0;points=[];fontColor=#FFFFFF;" parent="180" vertex="1" connectable="0">
                    <mxGeometry x="-0.9045" y="1" relative="1" as="geometry">
                        <mxPoint x="13" y="15" as="offset"/>
                    </mxGeometry>
                </mxCell>
                <mxCell id="254" value="1" style="edgeLabel;html=1;align=center;verticalAlign=middle;resizable=0;points=[];" parent="180" vertex="1" connectable="0">
                    <mxGeometry x="0.5564" y="3" relative="1" as="geometry">
                        <mxPoint x="17" y="-1" as="offset"/>
                    </mxGeometry>
                </mxCell>
                <mxCell id="255" value="1" style="edgeLabel;html=1;align=center;verticalAlign=middle;resizable=0;points=[];" parent="180" vertex="1" connectable="0">
                    <mxGeometry x="0.5843" relative="1" as="geometry">
                        <mxPoint x="-10" y="-10" as="offset"/>
                    </mxGeometry>
                </mxCell>
                <mxCell id="183" style="edgeStyle=orthogonalEdgeStyle;rounded=1;html=1;endArrow=none;endFill=0;fillColor=#008a00;strokeColor=#FFFFFF;fontColor=#FFFFFF;entryX=-0.008;entryY=0.954;entryDx=0;entryDy=0;entryPerimeter=0;" parent="1" source="28" target="8" edge="1">
                    <mxGeometry relative="1" as="geometry">
                        <mxPoint x="1118" y="-270" as="targetPoint"/>
                    </mxGeometry>
                </mxCell>
                <mxCell id="184" value="1" style="edgeLabel;html=1;align=center;verticalAlign=middle;resizable=0;points=[];fontColor=#FFFFFF;" parent="183" vertex="1" connectable="0">
                    <mxGeometry x="0.6594" y="-1" relative="1" as="geometry">
                        <mxPoint x="19" y="-23" as="offset"/>
                    </mxGeometry>
                </mxCell>
                <mxCell id="185" value="N" style="edgeLabel;html=1;align=center;verticalAlign=middle;resizable=0;points=[];fontColor=#FFFFFF;" parent="183" vertex="1" connectable="0">
                    <mxGeometry x="-0.6491" y="4" relative="1" as="geometry">
                        <mxPoint x="-26" y="35" as="offset"/>
                    </mxGeometry>
                </mxCell>
                <mxCell id="200" value="1" style="edgeLabel;html=1;align=center;verticalAlign=middle;resizable=0;points=[];" parent="183" vertex="1" connectable="0">
                    <mxGeometry x="-0.9449" y="1" relative="1" as="geometry">
                        <mxPoint y="-12" as="offset"/>
                    </mxGeometry>
                </mxCell>
                <mxCell id="201" value="1" style="edgeLabel;html=1;align=center;verticalAlign=middle;resizable=0;points=[];" parent="183" vertex="1" connectable="0">
                    <mxGeometry x="0.9202" y="-1" relative="1" as="geometry">
                        <mxPoint x="2" y="-15" as="offset"/>
                    </mxGeometry>
                </mxCell>
                <mxCell id="186" value="1" style="text;html=1;align=center;verticalAlign=middle;resizable=0;points=[];autosize=1;strokeColor=none;fillColor=none;" parent="1" vertex="1">
                    <mxGeometry x="1650" y="645" width="30" height="30" as="geometry"/>
                </mxCell>
                <mxCell id="187" value="N" style="text;html=1;align=center;verticalAlign=middle;resizable=0;points=[];autosize=1;strokeColor=none;fillColor=none;" parent="1" vertex="1">
                    <mxGeometry x="1580" y="645" width="30" height="30" as="geometry"/>
                </mxCell>
                <mxCell id="188" value="1" style="text;html=1;align=center;verticalAlign=middle;resizable=0;points=[];autosize=1;strokeColor=none;fillColor=none;" parent="1" vertex="1">
                    <mxGeometry x="420" y="540" width="30" height="30" as="geometry"/>
                </mxCell>
                <mxCell id="189" value="1" style="text;html=1;align=center;verticalAlign=middle;resizable=0;points=[];autosize=1;strokeColor=none;fillColor=none;" parent="1" vertex="1">
                    <mxGeometry x="414" y="320" width="30" height="30" as="geometry"/>
                </mxCell>
                <mxCell id="195" value="1" style="text;html=1;align=center;verticalAlign=middle;resizable=0;points=[];autosize=1;strokeColor=none;fillColor=none;" parent="1" vertex="1">
                    <mxGeometry x="610" y="30" width="30" height="30" as="geometry"/>
                </mxCell>
                <mxCell id="234" value="1" style="text;html=1;align=center;verticalAlign=middle;resizable=0;points=[];autosize=1;strokeColor=none;fillColor=none;" parent="1" vertex="1">
                    <mxGeometry x="1480" y="555" width="30" height="30" as="geometry"/>
                </mxCell>
                <mxCell id="258" value="Historial" style="swimlane;fontStyle=0;align=center;verticalAlign=top;childLayout=stackLayout;horizontal=1;startSize=26;horizontalStack=0;resizeParent=1;resizeLast=0;collapsible=1;marginBottom=0;rounded=0;shadow=0;strokeWidth=1;fontSize=12;fillColor=#6a00ff;fontColor=#FFFFFF;strokeColor=#3700CC;" parent="1" vertex="1">
                    <mxGeometry x="1970" y="-280" width="190" height="296" as="geometry">
                        <mxRectangle x="550" y="140" width="160" height="26" as="alternateBounds"/>
                    </mxGeometry>
                </mxCell>
                <mxCell id="259" value="" style="line;html=1;strokeWidth=1;align=left;verticalAlign=middle;spacingTop=-1;spacingLeft=3;spacingRight=3;rotatable=0;labelPosition=right;points=[];portConstraint=eastwest;fontSize=12;fontColor=#FFFFFF;" parent="258" vertex="1">
                    <mxGeometry y="26" width="190" height="8" as="geometry"/>
                </mxCell>
                <mxCell id="260" value="-idHistorial (PK)" style="text;align=left;verticalAlign=top;spacingLeft=4;spacingRight=4;overflow=hidden;rotatable=0;points=[[0,0.5],[1,0.5]];portConstraint=eastwest;fontSize=12;fontColor=#FFFFFF;" parent="258" vertex="1">
                    <mxGeometry y="34" width="190" height="160" as="geometry"/>
                </mxCell>
                <mxCell id="261" value="+constructor()" style="text;align=left;verticalAlign=top;spacingLeft=4;spacingRight=4;overflow=hidden;rotatable=0;points=[[0,0.5],[1,0.5]];portConstraint=eastwest;fontSize=12;fontColor=#FFFFFF;" parent="258" vertex="1">
                    <mxGeometry y="194" width="190" height="102" as="geometry"/>
                </mxCell>
            </root>
        </mxGraphModel>
    </diagram>
</mxfile>